<svg id="Layer_1" data-name="Layer 1" xmlns="http://www.w3.org/2000/svg" viewBox="0 0 380.34 237.49"><defs><style>.cls-1{fill:#e4e4f3;}.cls-2,.cls-6{fill:#aaabd6;}.cls-2{isolation:isolate;opacity:0.27;}.cls-3{fill:#f0504f;}.cls-4{fill:#d7384e;}.cls-5{fill:#5960ab;}.cls-7{fill:#8d89c2;}.cls-8{fill:#fff;}</style></defs><g id="_15_Startup_launch" data-name=" 15 Startup launch"><g id="Nature"><g id="Cloud"><path id="Path" class="cls-1" d="M222,402.59c6.58,4.17,13.16,8.35,19.67,12.64-6.49-1.94-13-3.89-19-7.09s-11.39-7.8-14.43-13.85-3.37-13.69.19-19.45c5-8.15,17.14-12.16,25.72-7.42,3.56,2,7,5.18,11,4.58,8-1.22,13.65-9.36,21.24-12.12a42.68,42.68,0,0,1,25.78-1.09c3.38.94,13.45,4.73,13.86-2,.12-2-.77-4-.83-6-.27-9.77,26.77-.65,32.48-5.37,4.75-3.93,5.85-10.45,10.26-14.77,5.2-5.09,11.9-8.37,17.66-12.77,6.93-5.3,13.89-14.54,10.45-23.7-1.54-4.11-5-8-4.06-12.27.52-2.55,2.47-4.52,4.33-6.33l15.42-15.06c1.17-1.14,2.58-2.37,4.2-2.17,1.87.23,3,2.36,2.9,4.24s-1,3.6-1.75,5.35A24.71,24.71,0,0,0,401,293.11c3.57,4.1,8.77,7.35,9.93,12.67,1.22,5.59-1.77,13.32,3.3,16,2.64,1.38,5.95.15,8.78,1.07,5.74,1.88,5.31,10.05,8,15.46,3.54,7.14,12.56,9.14,19.27,13.45,7.24,4.64,12,12.25,18,18.37a55.82,55.82,0,0,0,28.82,15.42c4.65.91,10.55.63,12.71-3.58,2.27-4.42-1.12-10.62,2-14.45,3.63-4.38,10.47-.57,15.41,2.25,7.54,4.3,16.35,5.62,24.9,7.12s17.36,3.38,24.35,8.52,11.67,14.43,8.87,22.65c-3.13,9.19-13.74,13.34-23.32,15-35.65,6.17-71.61-6.14-107.64-9.57-36.82-3.51-73.59,2.31-110.22,5.39-37.78,3.19-74.3-.36-111.84-4.56" transform="translate(-205.83 -187.25)"/><path id="Path-2" class="cls-2" d="M378.73,329.35c-.07,3.19.36,6.42-.23,9.56s-2.5,6.31-5.57,7.18c-4.34,1.21-9.79-2.33-13.08.73-2.52,2.33-1.42,6.57-2.79,9.71-2.78,6.39-13.27,4.84-17.47,10.4-1.49,2-2.06,4.72-4.12,6.08-2.51,1.63-5.79.41-8.68-.33-11.78-3-23.86,3-34.16,9.43q-10.33,6.48-20.1,13.84a9,9,0,0,0-3.37,3.76c-.94,2.54.52,5.32,2.21,7.44,7.92,9.86,24.21-.3,36.84.52,21.86,1.42,38.22-2.44,60.12-3.14,15.43-.49,29.49,2.35,44.67-.45,14.29-2.63,31.78,1.75,46.3,1.63,6.67-.06,13.88,1.19,19.61-2.23a5.25,5.25,0,0,0,2-1.78c1.29-2.24-.36-5-2.09-6.89-6.91-7.58-29.09-4.8-35-13.17-15.82-22.33-23.2-21.36-40.74-27.45-2.27-.79-4.65-1.59-6.36-3.28s-2.5-4.6-1.08-6.55,3.93-2.15,5.45-3.78c3.23-3.46-.57-8.89-.54-13.62,0-1.94.71-3.82,1-5.74.89-6.28-5.46-16-12.62-13.75C381.93,309.62,378.86,323.38,378.73,329.35Z" transform="translate(-205.83 -187.25)"/></g></g><g id="UI"><g id="Rocket"><path id="Path-3" class="cls-3" d="M377,280.44c-2,1.46-4,3-5.15,5.14-1.61,2.92.8,5.33,1.77,7.95a7,7,0,0,1,.56,4.32c-.27,1.4-2.06,2.88-1,4.38,1.5,2.08,4.19.86,5.64,3.78,1.19,2.38.73,5.18,2.26,7.45s4.27,4.19,5.27,6.91-1.27,7.07,1.92,9.08c1.7,1.07,4.08.16,5.3-1.44,2.56-3.36,2.53-9.63,3.17-13.62.29-1.86,1.59-4.31,3.3-3.54,1.08.49,2.54,8.25,4.79,4.23a4.63,4.63,0,0,0,.31-2.64,17.76,17.76,0,0,1-.34-4c.71-4.62,1.81-7.1.38-12-.16-.53-.27-1.19.15-1.53a1.41,1.41,0,0,1,.82-.22c1.79-.12,3.85,0,4.81-1.87,1-2-1.39-3.56-2.07-5.25.14.34,4.92,1.71,5.7,2.14a13.55,13.55,0,0,0-8.59-7.25" transform="translate(-205.83 -187.25)"/><path id="Path-4" class="cls-4" d="M379.41,297.2a12,12,0,0,0,2.35,4.37,13.35,13.35,0,0,1,2.38,2.93c.47,1,.53,2.15,1,3.16,1.65,3.92,4.73-.26,5.81-2.2,1.34-2.4,2.67-3.11,5.19-3.07a1.06,1.06,0,0,0,.8-.22,1,1,0,0,0,.14-.8c-.22-1.54-1.88-3.69-.26-5a7.11,7.11,0,0,1,2.25-.94c3.87-1.37,3.78-8.47,3.63-11.88a7.11,7.11,0,0,0-1.25-3.57c-3.87-5.93-13.83-6-18.52-.93C379.09,283.11,377.55,291.2,379.41,297.2Z" transform="translate(-205.83 -187.25)"/><g id="Group"><path id="Path-5" class="cls-5" d="M427.64,285.37c-2.06,1.64-17-9.64-31.64-22.64l16.56-13.19C421.91,266.73,429.52,283.88,427.64,285.37Z" transform="translate(-205.83 -187.25)"/><path id="Path-6" class="cls-5" d="M355.05,285.37c2.06,1.64,17-9.64,31.64-22.64l-16.56-13.19C360.78,266.73,353.17,283.88,355.05,285.37Z" transform="translate(-205.83 -187.25)"/><g id="Group-2"><path id="Path-7" class="cls-6" d="M368.33,252c0,19.69,10,30.5,22.34,30.5S413,271.66,413,252c0-7.87-2.59-19.78-6.08-31.24h-32.7C370.81,232.19,368.33,244.1,368.33,252Z" transform="translate(-205.83 -187.25)"/><path id="Path-8" class="cls-5" d="M390.67,187.25c-4.07,0-11.31,16.24-16.44,33.48h32.7C401.68,203.49,394.37,187.25,390.67,187.25Z" transform="translate(-205.83 -187.25)"/></g><path id="Path-9" class="cls-7" d="M407.23,280.12H374.1a4.75,4.75,0,0,1-4.73-4.74h0a4.75,4.75,0,0,1,4.73-4.73h33.13a4.74,4.74,0,0,1,4.73,4.73h0A4.75,4.75,0,0,1,407.23,280.12Z" transform="translate(-205.83 -187.25)"/><path id="Path-10" class="cls-5" d="M405.73,282.7H375.61a1.3,1.3,0,0,1-1.3-1.29h0a1.3,1.3,0,0,1,1.3-1.29h30.12a1.29,1.29,0,0,1,1.29,1.29h0A1.29,1.29,0,0,1,405.73,282.7Z" transform="translate(-205.83 -187.25)"/><g id="Group-3"><path id="Path-11" class="cls-8" d="M390.67,234.07a11.73,11.73,0,0,0-11.73,11.73h0c0,.36,0,.71.05,1.06,6.88-2.8,13.71-5.69,20.41-8.88A11.7,11.7,0,0,0,390.67,234.07Z" transform="translate(-205.83 -187.25)"/><path id="Path-12" class="cls-1" d="M379,246.86A11.73,11.73,0,1,0,399.4,238C392.7,241.17,385.87,244.06,379,246.86Z" transform="translate(-205.83 -187.25)"/></g></g></g></g></g></svg>