<svg id="Layer_1" data-name="Layer 1" xmlns="http://www.w3.org/2000/svg" viewBox="0 0 651.84 405.18"><defs><style>.cls-1{fill:#5960ab;}.cls-2{fill:#f0504f;}.cls-3{fill:#e4e4f3;}.cls-4{fill:#fdc615;}.cls-5{fill:#fff;}.cls-6{fill:#aaabd6;}.cls-7{fill:#8d89c2;}.cls-8{fill:#f0f0f8;}.cls-9{fill:#4d3c97;}.cls-10{fill:#d4a79b;}.cls-11{fill:#e9c2ab;}.cls-12{fill:#f2aa1e;}.cls-13{fill:#d7384e;}</style></defs><g id="_19_Coming_soon" data-name=" 19 Coming soon"><g id="Nature"><path id="Plant" class="cls-1" d="M473.45,472.93c-.35-.79-.57-1.84.09-2.39a2,2,0,0,1,1.78-.18,11.09,11.09,0,0,1,5.17,2.89,15.33,15.33,0,0,1,.06-7c.15-.6.43-1.3,1-1.42.79-.16,1.35.73,1.67,1.47q1.19,2.86,2.37,5.7a20.19,20.19,0,0,1,3.93-6,1.58,1.58,0,0,1,.95-.6c.95-.09,1.24,1.26,1.14,2.2-.42,4.15-.73,12.91-5.67,13.72S475.26,477,473.45,472.93Z" transform="translate(-31.25 -76.85)"/><path id="Plant-2" data-name="Plant" class="cls-2" d="M384.15,475a1.4,1.4,0,0,1,1.25-.22,5.42,5.42,0,0,1,4.1,3.61,16.29,16.29,0,0,1,1.17-5.06,3.94,3.94,0,0,1,1.21-1.77,1.58,1.58,0,0,1,2,0,2.27,2.27,0,0,1,.45,1.57,15.16,15.16,0,0,1-.67,4.53c2.55-3,5.41-6.21,9.29-6.91a1.74,1.74,0,0,1,1.44.19c.66.55.33,1.61-.11,2.34-2.17,3.59-7,7.81-11.29,8.67C390.52,482.49,381.35,477.75,384.15,475Z" transform="translate(-31.25 -76.85)"/><ellipse id="Ground" class="cls-3" cx="304.16" cy="341.39" rx="216.99" ry="19.79"/><g id="Plant-3" data-name="Plant"><path id="Path" class="cls-4" d="M379.4,382c3.12-.22,5.48-3.43,7.89-5.92s6-4.38,8.51-2c3.09,3,1.66,10.27,4.86,13.1,8.41-.28,25.43-5.68,30.66,1,13.19,16.84,10.91,6,18.76,9.79a2.82,2.82,0,0,1,1.54,1.36c.77,1.82-1.25,3.46-2.85,3.91-15.82,4.38-31.95,2.27-47.86,1-7.85-.63-15.48-2.09-23.28-1-5.69.78-12,3.33-17.38-.16-6.3-4.09-10.92-17.44-7.05-25.7C361.07,360.67,371.08,382.59,379.4,382Z" transform="translate(-31.25 -76.85)"/><path id="Path-2" class="cls-5" d="M381.43,399.05a.8.8,0,0,1-.47-.15.84.84,0,0,1-.24-1.17l10.44-15.6a.84.84,0,0,1,1.41.93l-10.44,15.61A.83.83,0,0,1,381.43,399.05Z" transform="translate(-31.25 -76.85)"/><path id="Path-3" class="cls-5" d="M410.2,413.8a.88.88,0,0,1-.42-.11.84.84,0,0,1-.32-1.15h0l12.41-22a.84.84,0,0,1,1.47.83l-12.41,22A.83.83,0,0,1,410.2,413.8Z" transform="translate(-31.25 -76.85)"/><path id="Path-4" class="cls-5" d="M418.51,399.05a.85.85,0,0,1-.7-.37l-4.93-7.27a.85.85,0,1,1,1.4-1l4.93,7.27a.84.84,0,0,1-.23,1.17A.78.78,0,0,1,418.51,399.05Z" transform="translate(-31.25 -76.85)"/></g><path id="Plant-4" data-name="Plant" class="cls-3" d="M508.3,448.14c.23,1.09,1.52,2.27,2.27,1.44a1.73,1.73,0,0,0,.33-.9c.55-3.79.28-8.24,3.2-10.71l3.19,6c1.51-5.56,3.26-11.5,7.75-15.1l.27,7.75a1.72,1.72,0,0,0,.43,1.32c.69.57,1.68-.21,2.17-1,1.8-2.78,2.73-6.23,5.32-8.29.48-.37,1.15-.7,1.67-.4a1.46,1.46,0,0,1,.59.92c.66,2.53-1.24,4.91-2.56,7.17a17.85,17.85,0,0,0-2.44,8.6l4.79-3.95c1-.79,2.57-1.5,3.24-.46a2,2,0,0,1-.26,2c-.88,1.47-2.18,2.64-3.13,4.05s-1.52,3.32-.74,4.84a9.46,9.46,0,0,1,6.43-2.51c-3.62,2.09-4,7.17-6.57,10.45-4.43,5.64-17.67,8.56-23.89,4.36-3-2-4.47-5.64-5.3-9-.52-2.16-1-4.64-.12-6.79C506.15,444.94,507.64,445,508.3,448.14Z" transform="translate(-31.25 -76.85)"/><g id="Plant-5" data-name="Plant"><path id="Path-5" class="cls-1" d="M57.93,365.39c-1.57-2.3-3.11-4.78-3.2-7.52C54.38,347.56,72.81,344.12,73,333.8c.08-5.64-5.48-9.56-9.59-13.61s-6.71-11.55-1.8-14.66c1.28-.81,2.83-1.11,4.17-1.8,4.43-2.3,5.32-8.26,3.67-12.82s-5.11-8.27-7.72-12.4c-10.17-16.14-6.24-36.68-2-55.09.8-3.44,3.08-7.83,6.64-6.92,2.18.55,3.2,2.88,3.92,4.92q4.61,13.1,9.22,26.17c1.3,3.72,3.39,8.07,7.46,8.51,8.1.88,9.3-13.69,17.39-14.7,5.28,4.42,5.68,12.09,5,18.78s-2,13.82,1.21,19.81,13.16,8.88,17.08,3.31c5.27,7.62-3.55,18.67,1,26.69,3,5.34,10.72,6.75,14.34,11.75,3.06,4.22,2.48,9.84,1.94,15-2.59,24.52-3.76,56.26-34.07,64C88.8,406.25,68.58,380.91,57.93,365.39Z" transform="translate(-31.25 -76.85)"/><path id="Path-6" class="cls-2" d="M40.55,384a6.14,6.14,0,0,1-2-3.45c-.31-3.19,3.72-4.73,6.85-5.39s7-2.86,6.06-5.91a5.23,5.23,0,0,0-1.42-2c-3-3-6.78-5.3-9.46-8.63s-4-8.37-1.49-11.82a11.91,11.91,0,0,0,2.14-3c.72-2.17-1-4.32-2.41-6.12-3.76-4.77-13.77-26-1.88-27.75,3.87-.57,7.58,1.93,10,5s3.83,6.78,6,10.06c7.84,12.16,21.84,10.18,27.17,25.28.55,1.53,1.3,3.26,2.87,3.69,3.61,1,6-7.24,8.83-1.67,5.71,11.22,11.42,26.67,6.44,39.07-3,7.47-10,16.66-19.19,14.74C64.76,403.12,50.48,394.27,40.55,384Z" transform="translate(-31.25 -76.85)"/><path id="Path-7" class="cls-5" d="M80.21,395.6a.86.86,0,0,1-.76-.47L54,344.73a.85.85,0,1,1,1.51-.77L81,394.37a.85.85,0,0,1-.37,1.14h0A.85.85,0,0,1,80.21,395.6Z" transform="translate(-31.25 -76.85)"/><g id="Group"><path id="Path-8" class="cls-5" d="M113.39,403.66a.84.84,0,0,1-.83-.67L87.28,278.28a.85.85,0,0,1,1.66-.34l25.28,124.71a.85.85,0,0,1-.66,1Z" transform="translate(-31.25 -76.85)"/><path id="Path-9" class="cls-5" d="M96.54,317.05a.85.85,0,0,1-.85-.84.94.94,0,0,1,.08-.36L106.52,292a.85.85,0,0,1,1.55.69h0L97.31,316.55A.88.88,0,0,1,96.54,317.05Z" transform="translate(-31.25 -76.85)"/><path id="Path-10" class="cls-5" d="M106.17,362.17a.84.84,0,0,1-.84-.84.71.71,0,0,1,.07-.35l10.75-23.89a.85.85,0,1,1,1.55.69h0L107,361.67A.86.86,0,0,1,106.17,362.17Z" transform="translate(-31.25 -76.85)"/><path id="Path-11" class="cls-5" d="M99.28,341.35a.9.9,0,0,1-.36-.08l-23.24-11a.84.84,0,1,1,.71-1.53h0l23.25,11a.84.84,0,0,1,.4,1.12A.85.85,0,0,1,99.28,341.35Z" transform="translate(-31.25 -76.85)"/></g><path id="Path-12" class="cls-4" d="M60.35,384.15c11.34-4.41,23.81,1.45,34.73,6.83s24.07,10.41,34.77,4.59c13.22-7.19,15.28-10.09,29.65-1.54,9.32,5.53,36.44,13.93,46.85,15.92,7.77,1.49,75.55,14.71,17.81,13-16.39-.5-34.28-2-50.16-2.55-34.43-1.11-69-5-103.46-3.37-7.74.36-25.8,8.11-32.36,2C29.05,410.44,52.36,387.26,60.35,384.15Z" transform="translate(-31.25 -76.85)"/><path id="Path-13" class="cls-5" d="M72.53,380.41l-.17,0a.85.85,0,0,1-.67-1h0l3.51-17.56a.85.85,0,0,1,1-.66.84.84,0,0,1,.67,1h0l-3.52,17.56A.84.84,0,0,1,72.53,380.41Z" transform="translate(-31.25 -76.85)"/><path id="Path-14" class="cls-5" d="M158.61,423.92a.86.86,0,0,1-.71-.38L144.62,403.3a.84.84,0,0,1,.24-1.17.85.85,0,0,1,1.17.25l13.29,20.23a.85.85,0,0,1-.24,1.17h0A.74.74,0,0,1,158.61,423.92Z" transform="translate(-31.25 -76.85)"/><path id="Path-15" class="cls-5" d="M83,420.76a.87.87,0,0,1-.63-.27L66.84,403.41a.85.85,0,0,1,0-1.2.84.84,0,0,1,1.19,0l0,0,15.57,17.07a.85.85,0,0,1-.63,1.42Z" transform="translate(-31.25 -76.85)"/><path id="Path-16" class="cls-5" d="M76,413.09a.83.83,0,0,1-.84-.85.8.8,0,0,1,.16-.49l7-9.42a.84.84,0,0,1,1.18-.17.85.85,0,0,1,.18,1.18h0l-7,9.41A.83.83,0,0,1,76,413.09Z" transform="translate(-31.25 -76.85)"/><path id="Path-17" class="cls-5" d="M152,413.8a.91.91,0,0,1-.37-.08l-15.36-7.49a.85.85,0,1,1,.74-1.52l15.36,7.49a.84.84,0,0,1-.37,1.6Z" transform="translate(-31.25 -76.85)"/><path id="Path-18" class="cls-5" d="M148.42,408.39a.77.77,0,0,1-.3-.06.85.85,0,0,1-.5-1.09l3.56-9.34a.85.85,0,0,1,1.1-.47.84.84,0,0,1,.48,1.07l-3.55,9.34A.85.85,0,0,1,148.42,408.39Z" transform="translate(-31.25 -76.85)"/></g><g id="Plant-6" data-name="Plant"><path id="Path-19" class="cls-6" d="M595.3,361.18c-.22-1.67-.25-3.6,1-4.77,2.89-2.81,8.1,2.07,11.54,0,1.86-1.13,2.13-3.75,1.61-5.86s-1.61-4.09-1.74-6.26c-.37-5.93,6-9.65,9.76-14.29,3.47-4.35,5.06-10.44,9.85-13.29a5.13,5.13,0,0,1,4.61-.63c2.68,1.22,2.58,5,2,7.9-1.57,7.59-3.46,16.29,1.26,22.43,1.81,2.36,4.64,4.5,4.43,7.47-.21,3.15-3.76,5-4.87,8-1.37,3.62,1.25,7.75.22,11.47-1.08,3.9-5.58,5.71-7.86,9.06-1.06,1.56-1.62,3.45-2.84,4.89-5.35,6.32-15.11,1.51-19.16-3.48A45,45,0,0,1,595.3,361.18Z" transform="translate(-31.25 -76.85)"/><path id="Path-20" class="cls-3" d="M495.65,354.76c11.31-5.11,23.85,2,34.84,8.48s24.2,12.59,34.84,5.82c13.16-8.39,15.18-11.8,29.65-1.52,9.38,6.66,36.62,16.92,47,19.4,7.8,1.84,75.76,18.25,18,15.57-16.42-.77-34.33-2.78-50.23-3.57-34.46-1.69-69.07-6.63-103.56-5.11-7.74.34-25.72,9.33-32.35,2C464.62,385.59,487.7,358.36,495.65,354.76Z" transform="translate(-31.25 -76.85)"/><path id="Path-21" class="cls-1" d="M601.67,347.25c1.42-2.41,2.43-6-.13-7.4a6.19,6.19,0,0,0-3.53-.34l-11.94,1.16c-1.26-4.82,1.62-9.8,5.29-13.38s8.21-6.39,11.52-10.27,5.21-9.48,2.61-13.81-10.85-4.92-12.7-.27q5.63-13.06,11.26-26.12c1-2.2,1.61-5.29-.59-6.48a5.31,5.31,0,0,0-3.73-.09,30.58,30.58,0,0,0-15.45,9.18c4.66-7.68-1.78-17.16-9-22.82-6.58-5.13-16.69-9.1-23.25-3.94-7.93,6.25-2.41,18.18-3.61,27.81a7.29,7.29,0,0,1-2.44,5.09c-2.53,1.92-6.36,1.07-9.37,2.23-5.73,2.21-5.62,9.72-4.53,15.41q4.53,23.79,9.07,47.57L525.46,339c-2.43-1.83-5.56-3.78-8.44-2.63a5.68,5.68,0,0,0-3.19,3.87c-2,7.13,5.69,13,9.46,19.5,7.78,13.35-1.9,54.13,26.82,38.05A141,141,0,0,0,601.67,347.25Z" transform="translate(-31.25 -76.85)"/><path id="Path-22" class="cls-5" d="M613.27,383.44l-.22,0a.85.85,0,0,1-.6-1l9-34.37a.85.85,0,0,1,1.64.43h0l-9,34.37A.86.86,0,0,1,613.27,383.44Z" transform="translate(-31.25 -76.85)"/><path id="Path-23" class="cls-5" d="M617.38,366.26a.85.85,0,0,1-.84-.84.86.86,0,0,1,.48-.77l10.55-4.95a.85.85,0,1,1,.72,1.53h0l-10.55,4.95A.86.86,0,0,1,617.38,366.26Z" transform="translate(-31.25 -76.85)"/><path id="Path-24" class="cls-5" d="M614.5,378.75a.83.83,0,0,1-.75-.45l-7.8-15a.86.86,0,0,1,.35-1.15.84.84,0,0,1,1.14.35v0l7.8,15a.87.87,0,0,1-.36,1.15h0A.89.89,0,0,1,614.5,378.75Z" transform="translate(-31.25 -76.85)"/><path id="Path-25" class="cls-5" d="M550,389.77l-.2,0a.84.84,0,0,1-.62-1h0L573,292.11a.84.84,0,0,1,1-.6.83.83,0,0,1,.61,1l-23.75,96.61A.87.87,0,0,1,550,389.77Z" transform="translate(-31.25 -76.85)"/><path id="Path-26" class="cls-5" d="M565.53,326.7a.85.85,0,0,1-.84-.85.83.83,0,0,1,.36-.69l21.22-14.86a.85.85,0,0,1,1,1.39L566,326.54A.84.84,0,0,1,565.53,326.7Z" transform="translate(-31.25 -76.85)"/><path id="Path-27" class="cls-5" d="M553.89,378.75a.86.86,0,0,1-.68-.34.84.84,0,0,1,.17-1.18L580,357.39a.85.85,0,1,1,1,1.35l-26.67,19.84A.82.82,0,0,1,553.89,378.75Z" transform="translate(-31.25 -76.85)"/><path id="Path-28" class="cls-2" d="M591.32,380.59c-3.48-1.17-7.67-1.59-10.83.08-4.68,2.47-5.38,8.47-10.37,10.47-6.22,2.5-13.28-3.19-20.1-2.22-5.83.84-9.58,6.3-15.46,6.78-2.81.23-5.52-.73-8.18-1.49s-5.69-1.31-8.23-.3-3.77,4.23-1.59,5.7a7.46,7.46,0,0,0,3.57.89,537,537,0,0,0,65,1.37c6.17-.26,16.72,0,19.19-6.15S597.42,382.64,591.32,380.59Z" transform="translate(-31.25 -76.85)"/><path id="Path-29" class="cls-5" d="M585.19,402.72a1,1,0,0,1-.24,0,.84.84,0,0,1-.58-1h0l3.82-13.36a.84.84,0,0,1,1-.59h0a.83.83,0,0,1,.58,1h0L586,402.11A.87.87,0,0,1,585.19,402.72Z" transform="translate(-31.25 -76.85)"/><path id="Path-30" class="cls-5" d="M587.28,395.41a.84.84,0,0,1-.73-.42l-2.09-3.64a.84.84,0,1,1,1.45-.86v0l2.1,3.63a.85.85,0,0,1-.32,1.16A.88.88,0,0,1,587.28,395.41Z" transform="translate(-31.25 -76.85)"/></g></g><g id="UI"><g id="Computer"><g id="Group-2"><path id="Path-31" class="cls-7" d="M396.57,405.47H276.45a6.68,6.68,0,0,1-6.66-6.66V397.6a6.67,6.67,0,0,1,6.66-6.66H396.57a6.68,6.68,0,0,1,6.66,6.66v1.21A6.68,6.68,0,0,1,396.57,405.47Z" transform="translate(-31.25 -76.85)"/><path id="Path-32" class="cls-7" d="M359.26,405.47h-45.5a5.22,5.22,0,0,1-5.2-5.2V346.18a5.22,5.22,0,0,1,5.2-5.2h45.5a5.22,5.22,0,0,1,5.2,5.2v54.1A5.23,5.23,0,0,1,359.26,405.47Z" transform="translate(-31.25 -76.85)"/><g id="Group-3"><path id="Path-33" class="cls-6" d="M545.51,360.47h-418a14.36,14.36,0,0,1-14.32-14.31v-255A14.37,14.37,0,0,1,127.5,76.85h418a14.36,14.36,0,0,1,14.31,14.31v255A14.35,14.35,0,0,1,545.51,360.47Z" transform="translate(-31.25 -76.85)"/><path id="Path-34" class="cls-8" d="M134.52,83.45a14.09,14.09,0,0,0-14.05,14v90.75Q186.82,135,254.87,83.45Z" transform="translate(-31.25 -76.85)"/><path id="Path-35" class="cls-3" d="M536.77,83.45H254.87q-68,51.63-134.4,104.8V317.84a14.09,14.09,0,0,0,14.05,14.05H536.77a14.09,14.09,0,0,0,14.05-14.05V97.5A14.09,14.09,0,0,0,536.77,83.45Z" transform="translate(-31.25 -76.85)"/></g></g><circle id="Oval" class="cls-9" cx="304.4" cy="267.49" r="3.88"/></g></g><g id="Background"><g id="Mop"><path id="Path-36" class="cls-7" d="M488.74,235.63a2.55,2.55,0,0,1-1.68-.64L363.13,126.15a2.54,2.54,0,0,1,3.35-3.82L490.41,231.19a2.53,2.53,0,0,1-1.67,4.44Z" transform="translate(-31.25 -76.85)"/><path id="Path-37" class="cls-7" d="M347.54,144.52a4.23,4.23,0,0,1-3-7.21l34.17-34.43a4.24,4.24,0,1,1,6,6l-34.17,34.42A4.25,4.25,0,0,1,347.54,144.52Z" transform="translate(-31.25 -76.85)"/></g><g id="Ladder"><rect id="Rectangle" class="cls-9" x="452.08" y="224.08" width="1.69" height="240.49" transform="translate(-55.18 -42.86) rotate(-4.19)"/><rect id="Rectangle-2" class="cls-9" x="491.56" y="224.08" width="1.69" height="240.49" transform="translate(-55.08 -39.98) rotate(-4.19)"/><rect id="Rectangle-3" class="cls-9" x="414.66" y="170.48" width="39.48" height="1.69"/><rect id="Rectangle-4" class="cls-9" x="416.69" y="191.41" width="39.48" height="1.69"/><rect id="Rectangle-5" class="cls-9" x="418.73" y="212.36" width="39.48" height="1.69"/><rect id="Rectangle-6" class="cls-9" x="418.73" y="233.3" width="39.48" height="1.69"/><rect id="Rectangle-7" class="cls-9" x="420.76" y="254.23" width="39.48" height="1.69"/><rect id="Rectangle-8" class="cls-9" x="422.79" y="275.18" width="39.48" height="1.69"/><rect id="Rectangle-9" class="cls-9" x="422.79" y="296.11" width="39.48" height="1.69"/><rect id="Rectangle-10" class="cls-9" x="424.83" y="317.06" width="39.48" height="1.69"/></g></g><g id="Characters"><g id="Woman"><g id="Head"><g id="Face"><path id="Path-38" class="cls-10" d="M488.15,201.28l.63,11.68,9.14,3.53s-5.49-8-4.56-15.21S488.15,201.28,488.15,201.28Z" transform="translate(-31.25 -76.85)"/><path id="Path-39" class="cls-11" d="M480,177.38s-2,2.63-.05,10.73,5.1,15,7.54,14.51c6.74-1.34,9.1-6.11,11.44-10.2,2.87-5-2.82-17.25-2.82-17.25l-5.38-2.9Z" transform="translate(-31.25 -76.85)"/></g><path id="Hair" class="cls-9" d="M481.35,171.06c-4.29,4.08-5.72,10.34-5.89,16.26a29.41,29.41,0,0,0,.9,8.91c.91,3.21,2.58,6.15,4,9.19a3.34,3.34,0,0,1,.43,1.66,4.14,4.14,0,0,1-.9,1.83,11.8,11.8,0,0,0,0,13,6.22,6.22,0,0,0,3.78,2.81c2,.37,4.75-.29,5.41,1.6.33.94-.2,2,.12,3,.46,1.39,2.34,1.63,3.79,1.35s3-.79,4.3,0c1.65,1,1.7,3.67,3.42,4.56a4.58,4.58,0,0,0,2.13.34c3,0,4.35,2.27,7.35,2.26,1.34,0,4.42-2.31,5.53-3.08s1.58-2.54.59-3.44-2.73-.48-3.5-1.51c-1.23-1.68,1.85-3.76,1.34-5.77-.17-.68-.75-1.22-.87-1.91a5.41,5.41,0,0,1,.61-2.4c.78-2.62-1.42-5.13-3.55-6.85s-4.6-3.7-4.59-6.43c0-3.23,3.55-5.51,3.9-8.73.37-3.43-3-6.4-2.74-9.83.17-2.1,1.7-3.89,1.92-6,.26-2.41-1.25-4.62-2.68-6.57a16.59,16.59,0,0,0-3.67-4c-2-1.4-3.59-.46-5.59-1-1.78-.47-3-2-5.05-2.4A12.46,12.46,0,0,0,481.35,171.06Z" transform="translate(-31.25 -76.85)"/></g><g id="Leg"><path id="Skin" class="cls-10" d="M517,333.53l11,11.07,4.07-3.29-12.13-10.87S517.39,331.91,517,333.53Z" transform="translate(-31.25 -76.85)"/><path id="Shoe" class="cls-12" d="M521.92,365a48.25,48.25,0,0,0,7.41-8.14c4.31-5.7,8.85-12.25,8.75-14s-7.16-7.46-8.45-5.46,1.1,4.64-3.76,6.5c-4.16,1.59-1.55,6.69-3.83,12.67S518.83,364.87,521.92,365Z" transform="translate(-31.25 -76.85)"/><path id="Leg-2" data-name="Leg" class="cls-9" d="M509.26,305.9c1.08,4.24,1.39,8.83,3.71,12.29,3.53,5.27,9.72,6.78,15.38,7.93-1.62,5.18-4.73,9.52-7.79,13.73-2.25,3.12-4.57,6.29-7.58,8.38a57.44,57.44,0,0,0-3.87-11.71c-1.63-3.23-3.83-6-5.74-9-5.68-9-8.62-19.82-11.47-30.45-1.48-5.54-12.26-49,2.42-38.95C504.28,264.87,501.9,276.89,509.26,305.9Z" transform="translate(-31.25 -76.85)"/></g><g id="Leg-3" data-name="Leg"><path id="Skin-2" data-name="Skin" class="cls-11" d="M483.31,349.69,480,364.92l5,1.64,2.55-16.09S484.9,349.18,483.31,349.69Z" transform="translate(-31.25 -76.85)"/><path id="Shoe-2" data-name="Shoe" class="cls-4" d="M459.59,370.92a48.07,48.07,0,0,0,10.86,1.8c7.13.54,15.1.8,16.55-.26s2.38-10.07,0-10.07-3.31,3.45-7.5.37c-3.6-2.63-6.46,2.33-12.72,3.66S458,368.27,459.59,370.92Z" transform="translate(-31.25 -76.85)"/><path id="Leg-4" data-name="Leg" class="cls-1" d="M470.37,353.09a4.43,4.43,0,0,1,1.5-1.32c5.23-3.65,4.39-9.77,3.93-15.11-1.09-12.65,1.73-25.15,3.28-37.64a127.19,127.19,0,0,0-1-36.65c-.74-4.4-1.72-11.18,4.9-9.49a26.31,26.31,0,0,0,9.48.53c1.69-.19,0-.84,1.69-.19,5.67,2.21,1.33,7.91-.1,11.65-2.85,7.44-.14,21.92-1,29.93-1.26,11.37-2,20.8-1.38,32.2.31,5.58.73,11.15,1.12,16.73.23,3.25,2.48,10.5.48,13.3-2.73,3.86-13.59-.25-17.28-.57C473.19,356.22,469.44,354.93,470.37,353.09Z" transform="translate(-31.25 -76.85)"/></g><path id="Arm" class="cls-11" d="M469.58,223.65c-5.16,3.9-12.12,10.81-17.08,2.77-2.6-4.21-4.44-8.83-6.86-13.14-1.72-4.46-3.79-9.18-3.63-14.06s-.13-11.72-.61-12.95-6.2-6.6-6.27-4.36,3.19,10.44-1.06,6.56c-1.28-1.17-.53,1-.09,3.59s3.9,6,3.9,6c3.43,14.44,2.43,31.56,18.41,38.65,4.43,2,11.41-4.39,15-6.58,1.26-.77,13.73-9.34,14.06-9l-4.4-4.33a2.35,2.35,0,0,0-1.22-.78,2.28,2.28,0,0,0-1.58.57c-2.35,1.65-4.4,3.66-6.6,5.49C470.89,222.63,470.24,223.15,469.58,223.65Z" transform="translate(-31.25 -76.85)"/><g id="Body"><path id="Path-40" class="cls-13" d="M477.24,255.76c0-.54-.89-14.46,1.07-23.39s0-16.59,6.78-22,12.32,1.79,14.1,5.53.18,22.91.43,29.21c.26,6.45,0,5.28,1.42,12.22.91,4.43,9.4,14.86-1.32,11.73-3.64-1.06-11.27-1.51-14.39-2.61-2.78-1-6.08-1.68-8.29-4C476.35,261.82,477.24,255.76,477.24,255.76Z" transform="translate(-31.25 -76.85)"/><path id="Path-41" class="cls-2" d="M473.45,217.58s12.53-13.36,17.33-7.29-12.2,18.55-12.2,18.55l-7.72-10Z" transform="translate(-31.25 -76.85)"/></g></g></g></g></svg>