<svg id="Layer_1" data-name="Layer 1" xmlns="http://www.w3.org/2000/svg" xmlns:xlink="http://www.w3.org/1999/xlink" viewBox="0 0 550.55 414.44"><defs><style>.cls-1{fill:#e4e4f3;}.cls-2{isolation:isolate;opacity:0.49;fill:url(#linear-gradient);}.cls-3{fill:#fdc615;}.cls-4{fill:#fff;}.cls-5{fill:#8d89c2;}.cls-6{fill:#aaabd6;}.cls-7{fill:#4d3c97;}.cls-8{fill:#d4a79b;}.cls-9{fill:#f0504f;}.cls-10{fill:url(#linear-gradient-2);}.cls-11{fill:#d7384e;}.cls-12{fill:#f2aa1e;}.cls-13{fill:#e9c2ab;}.cls-14{fill:#5960ab;}.cls-15{opacity:0.72;}</style><linearGradient id="linear-gradient" x1="1.01" y1="614.14" x2="0.96" y2="614.61" gradientTransform="matrix(455.97, 0, 0, -155.3, -103.32, 95829.37)" gradientUnits="userSpaceOnUse"><stop offset="0" stop-color="#aaabd6"/><stop offset="1" stop-color="#e4e4f3"/></linearGradient><linearGradient id="linear-gradient-2" x1="-46.09" y1="620.72" x2="-49.9" y2="625.03" gradientTransform="matrix(7.37, 0, 0, -23.56, 780.67, 14980.35)" xlink:href="#linear-gradient"/></defs><g id="_1_Working_remotely" data-name=" 1 Working remotely"><g id="Background"><g id="Chair"><path id="Path" class="cls-1" d="M442.85,298.08s26.84,43,52.5,66.72,55.51,48,37.43,92.57-71.39,62.84-166.71,60.51-129-2.83-149.87-50.12,48.66-57.89,96.19-72.27S442.85,298.08,442.85,298.08Z" transform="translate(-86.52 -109.55)"/><path id="Path-2" class="cls-2" d="M447.43,392s13.08,50.47-33.54,62.44-133.58,10.22-166.33-13.09S447.43,392,447.43,392Z" transform="translate(-86.52 -109.55)"/></g></g><g id="Nature"><g id="Plant"><g id="Group"><path id="Path-3" class="cls-3" d="M568.78,479.35a12.36,12.36,0,0,0,5-14.18c-3-8.35-10.6-5.53-16-9.92-6.4-5.16,1.33-13.28.91-19.38-.47-6.71-6.51-13.19-8.33-19.67-4.17-14.9,12.77-3.78,17.6-5.52a6.54,6.54,0,0,0,3.82-4.86c1.18-5.35-1.07-9.68,1.86-14.75,2.83-4.89,7-7.1,5.81-13.75-.68-3.76-3-7.21-3-11a3.21,3.21,0,0,1,1.29-2.86,3,3,0,0,1,2.42,0c2.61.91,4.32,3.34,6.42,5.14s5.48,2.92,7.5,1c1.34-1.26,1.47-3.3,1.74-5.12.49-3.29,2.8-5.57,5.66-3.67,3.12,2.07,1.93,10.22,1.46,13.14-.75,4.64-1.88,9.45-.5,13.94,2.28,7.43,8.5-.89,11.21-3.35,2.22-2,5.94-3.23,8.07-1.12,4.25,4.19-2.58,9.79-3.48,13.76-.43,1.89.12,4.15,1.8,5.12,4.92,2.84,9.07-2.23,9.82,5.35.51,5.19-4.19,10.13-1.27,15.32,2.54,4.54,11,6.46,7.67,12.83-2.06,3.9-10.91,3.73-10.45,9.29.31,3.62,5.75,5.26,5.76,8.9,0,2.74-3.18,4.35-5.92,4.49s-5.61-.5-8.13.57a6.63,6.63,0,0,0-3.64,7.71c.78,2.59,3.19,4.95,2.43,7.54-.91,3.12-5.24,3.24-8.45,2.74C594.78,475,580.74,473.59,568.78,479.35Z" transform="translate(-86.52 -109.55)"/><path id="Path-4" class="cls-4" d="M593.55,478.06a.84.84,0,0,1-.84-.84h0V418.69a.84.84,0,1,1,1.68,0v58.53a.84.84,0,0,1-.83.84Z" transform="translate(-86.52 -109.55)"/><path id="Path-5" class="cls-4" d="M593.55,455.28a.84.84,0,0,1-.84-.85.86.86,0,0,1,.19-.53L608.25,435a.84.84,0,0,1,1.31,1.06L594.21,455A.9.9,0,0,1,593.55,455.28Z" transform="translate(-86.52 -109.55)"/><path id="Path-6" class="cls-4" d="M593.55,439.3a.82.82,0,0,1-.54-.2l-18.3-15.4a.84.84,0,0,1-.09-1.18.85.85,0,0,1,1.17-.11l18.3,15.4a.84.84,0,0,1,.1,1.18A.81.81,0,0,1,593.55,439.3Z" transform="translate(-86.52 -109.55)"/></g><g id="Group-2"><path id="Path-7" class="cls-5" d="M566.22,471.15c2.4,16,4.57,32.73,8.62,48.17a7.72,7.72,0,0,0,1.55,3.45,4.44,4.44,0,0,0,3.48,1c7-.16,14,.29,21,.24,6.6,0,12,.5,12.75-10.47.23-3.8.84-42.36,4.34-42.36Z" transform="translate(-86.52 -109.55)"/><path id="Path-8" class="cls-6" d="M613.22,480.71H570.94a9.59,9.59,0,0,1-9.56-9.56h0a9.59,9.59,0,0,1,9.56-9.57h42.28a9.59,9.59,0,0,1,9.56,9.57h0A9.59,9.59,0,0,1,613.22,480.71Z" transform="translate(-86.52 -109.55)"/></g></g></g><g id="Characters"><g id="Woman"><path id="Hair" class="cls-7" d="M409.41,129.52s5.54,12.31-3.11,19.89-20.43,1.58-31.85,8.52-10.19,15.17-4.95,33.48c6.23,21.79,13,21.14,19.16,22.71s7.94,18.63,8.63,26.52,1.73,13.26-20.07,24-9.91,27.15-7.73,48.43c2.42,23.54-25.51,37.12-30.35,42.8s-16.27,6.63-22.5-5.36,25.43-20.83,22.67-40.09-19.68-32.21,4.2-51.15,19.17-34.09,11.21-49.56-11.77-21.47-5.2-41.36-.34-13.89,8.31-29.67S398,105.53,409.41,129.52Z" transform="translate(-86.52 -109.55)"/><path id="Neck" class="cls-8" d="M394.35,223l1.74,32.41,25.37,9.78S406.2,242.83,408.79,223,394.35,223,394.35,223Z" transform="translate(-86.52 -109.55)"/><g id="Body"><path id="Path-9" class="cls-9" d="M453.15,328.1s-1.69-3.08-6.73-18.92-6.87-21.73-13.88-37.06S411,247.22,411,247.22l-18.23-1s-2.24.14-12.75,8.83-20.61,33.51-20.61,33.51l-4.48,49.35,31.54,23.27,22.3,8a16.1,16.1,0,0,1-2.48-4.55c-3.74-11.11,8.78-72.6,9.2-78.07s11,46.69,11,46.69l9.17-2.66,6.29,20.05,3.94-20.48Z" transform="translate(-86.52 -109.55)"/><path id="Path-10" class="cls-10" d="M443.19,354.74l-1.27-4.06-2,10.58Z" transform="translate(-86.52 -109.55)"/><path id="Path-11" class="cls-3" d="M426.45,333.29s-10.59-52.15-11-46.68-12.94,67-9.2,78.06a16.3,16.3,0,0,0,2.48,4.56l22.94,8.26,8.23-16.23,2-10.58-6.3-20.06Z" transform="translate(-86.52 -109.55)"/><path id="Path-12" class="cls-11" d="M426.45,333.29s-10.59-52.15-11-46.68-12.94,67-9.2,78.06a16.3,16.3,0,0,0,2.48,4.56l22.94,8.26,8.23-16.23,2-10.58-6.3-20.06Z" transform="translate(-86.52 -109.55)"/></g></g></g><g id="UI"><g id="Laptop"><path id="Path-13" d="M240.56,313.68l128.8,6.21,25,24.21-120.3-3Z" transform="translate(-86.52 -109.55)"/><g id="Group-3"><path id="Path-14" class="cls-1" d="M362,323.8l-116.27-7.86a5.45,5.45,0,0,1-6.09-4.73l-23.43-62.86a5.47,5.47,0,0,1,5.28-5.62l116.27,7.86a5.46,5.46,0,0,1,6.09,4.73l23.43,62.87A5.46,5.46,0,0,1,362,323.8Z" transform="translate(-86.52 -109.55)"/><ellipse id="Oval" class="cls-6" cx="290.25" cy="285.62" rx="11.78" ry="13.74" transform="translate(-137.03 399.04) rotate(-77.74)"/></g></g></g><g id="Characters-2" data-name="Characters"><g id="Woman-2" data-name="Woman"><g id="Leg"><path id="Skin" class="cls-8" d="M187.58,425.31,154.7,473.46l15,12.65L201,433.83S193.81,425.75,187.58,425.31Z" transform="translate(-86.52 -109.55)"/><path id="Shoe" class="cls-12" d="M88.11,500.32s12.65,4.32,36.89,6.11,51.28,2.7,56.2-.89,8.08-34.18,0-34.18-11.22,11.69-25.47,1.26c-12.2-8.94-21.95,7.91-43.2,12.41S82.67,491.32,88.11,500.32Z" transform="translate(-86.52 -109.55)"/><path id="Leg-2" data-name="Leg" class="cls-7" d="M392.23,373.24c-2.9-5.46-18.62-2.38-37.47-9.39s-31-21.73-52.43-38.69-19.95-14-29.19-14.72S252.46,334.69,246,347.87c-13.59,27.76-30.79,52.56-56.49,68.69-7.8,4.91-42.2,23.56-48,31.37-12.11,16.44,47.41,16.58,63,18.48,15.4,1.88,24-6.88,30.27-20.7,7.11-15.78,14.89-31.21,22.67-46.65,3.88-7.72,7.79-15.44,11.6-23.2,1.64-3.35,5.2-15.49,9.16-17,12.2-4.64,28.29,32.53,31.72,40.88,6.89,16.82,32.12,36.45,50.45,38.41s32.12-10.23,38.13-28S392.23,373.24,392.23,373.24Z" transform="translate(-86.52 -109.55)"/></g><g id="Leg-3" data-name="Leg"><path id="Skin-2" data-name="Skin" class="cls-13" d="M250.3,429l-32.88,48.15,15,12.65,31.32-52.28S256.53,429.4,250.3,429Z" transform="translate(-86.52 -109.55)"/><path id="Shoe-2" data-name="Shoe" class="cls-3" d="M150.83,504s12.65,4.32,36.88,6.11,51.29,2.7,56.21-.89S252,475,243.92,475s-11.22,11.69-25.47,1.26c-12.2-8.94-21.95,7.91-43.2,12.41S145.39,495,150.83,504Z" transform="translate(-86.52 -109.55)"/><path id="Leg-4" data-name="Leg" class="cls-14" d="M439.83,373.24c-2.78-5.46-17.81-2.38-35.82-9.39s-29.65-21.73-50.12-38.69-19.07-14-27.9-14.72-19.77,24.25-25.94,37.43c-19,40.55-58,67.76-93.58,92.79-2.21,1.56-4.68,3.72-4.23,6.38a6.64,6.64,0,0,0,2.2,3.41c13.18,12.73,37.89,18.45,55.64,17.62s27.58-15.75,34.33-30.5C306.49,411.18,318.28,384,333,359c5.51-9.4,23.08,28.56,24.61,32.09,9.1,21.1,27.17,44.35,51.84,47.11,17.52,2,30.7-10.23,36.45-28S439.83,373.24,439.83,373.24Z" transform="translate(-86.52 -109.55)"/></g><path id="Face" class="cls-13" d="M371.68,154s-13.55,10-8.16,32.45,22.16,41.62,28.93,40.27c18.71-3.74,25.27-17,31.76-28.31,8-13.91-7.84-47.85-7.84-47.85l-14.92-8.05Z" transform="translate(-86.52 -109.55)"/><g id="Hair-2" data-name="Hair"><path id="Path-15" class="cls-7" d="M398.68,144.05s9.42,3.15,17.69,16.41,2.85,15.42,2.85,33.2a27.07,27.07,0,0,1-3.79,14.74c-2,3.21-5,5.74-7.07,8.9a21.22,21.22,0,0,0-3.31,13.21c.45,10,2.05,18.37,11,24,9.63,6.13,14.13,14.31,16.66,25.36,3,13.24,24.85,20.73,32.46,15.67s-15.1-1.67-10.59-23.45,6-31-7.11-37.09-6.87-7.65.05-20.9S436.57,201,443.61,178c8.13-26.63.76-56.32-39.05-48.11S398.68,144.05,398.68,144.05Z" transform="translate(-86.52 -109.55)"/><path id="Path-16" class="cls-7" d="M389,169.4c11.42-7,8.66-12.41,17.31-20s3.12-19.89,3.12-19.89c-11.42-24-42.92-6.63-51.58,9.16s-1.73,9.78-8.31,29.67c-4.53,13.71-4.13,20.82-.83,29l18.62,7.54C359.78,176.27,380.4,174.62,389,169.4Z" transform="translate(-86.52 -109.55)"/></g><path id="Arm" class="cls-13" d="M435.34,353.9s0,7.7-2.94,6.3-30.57-18.64-34.21-22.71-12.2-18.78-12.62-21.73,1-3.08-4.77-2.24-16.12,4.07-14.57,5.88,5.88.57,5.88.57-5.09,3.22-2.62,3.64,9.77-1,9.77,1.26-.42,9.82,1.26,13.6,3.79,5,9.25,6.31,6.44.84,10.93,5.47,29.59,26.91,32.81,28,4.63,3.08,8.56-4.07,6.73-12.62,7-23.83a177.8,177.8,0,0,0-1-22l-12.48,2.24A124.18,124.18,0,0,1,435.34,353.9Z" transform="translate(-86.52 -109.55)"/></g></g><g id="UI-2" data-name="UI"><g id="Chat"><path id="Path-17" class="cls-1" d="M475.7,211.49c2.24-10.25,7.23-20.46,10.9-30.3,1.94-5.23,6.22-12.28,6.66-17.87a3.5,3.5,0,0,1,3.91-3l74.68-5.05a3.52,3.52,0,0,1,3.4,3.61l-15,40.37a3.52,3.52,0,0,1-3.92,3l-60.22,3.85c-3.7,2.24-9.55,4.48-13.24,6.71C478.72,215.28,473.65,220.89,475.7,211.49Z" transform="translate(-86.52 -109.55)"/><g id="Group-4"><path id="Path-18" class="cls-4" d="M529.75,185.78,554,184.72a3,3,0,0,0,2.84-3.09h0a3,3,0,0,0-3.1-2.84l-24.27,1.05a3,3,0,0,0-2.84,3.1h0A3,3,0,0,0,529.75,185.78Z" transform="translate(-86.52 -109.55)"/><path id="Path-19" class="cls-4" d="M512.3,175.73l44-1.91a3,3,0,0,0,2.84-3.1h0a3,3,0,0,0-3.1-2.84l-44,1.91a3,3,0,0,0-2.84,3.1h0A3,3,0,0,0,512.3,175.73Z" transform="translate(-86.52 -109.55)"/></g></g><g id="Chat-2" data-name="Chat"><path id="Path-20" class="cls-1" d="M257.07,220.66c-2.58-11.86-8.36-23.68-12.61-35.07-2.25-6-7.21-14.2-7.71-20.68a4.06,4.06,0,0,0-4.53-3.52l-86.44-5.84a4.05,4.05,0,0,0-3.93,4.17l17.42,46.74a4,4,0,0,0,4.52,3.51l69.72,4.46c4.27,2.59,11,5.19,15.33,7.77C253.58,225.06,259.45,231.55,257.07,220.66Z" transform="translate(-86.52 -109.55)"/><g id="Group-5"><path id="Path-21" class="cls-4" d="M194.51,190.91l-28.09-1.23a3.44,3.44,0,0,1-3.28-3.58h0a3.45,3.45,0,0,1,3.59-3.29L194.81,184a3.45,3.45,0,0,1,3.29,3.59h0A3.46,3.46,0,0,1,194.51,190.91Z" transform="translate(-86.52 -109.55)"/><path id="Path-22" class="cls-4" d="M214.71,179.27l-50.89-2.21a3.45,3.45,0,0,1-3.29-3.58h0a3.46,3.46,0,0,1,3.59-3.29L215,172.4A3.45,3.45,0,0,1,218.3,176h0A3.45,3.45,0,0,1,214.71,179.27Z" transform="translate(-86.52 -109.55)"/></g></g><g id="Chat-3" data-name="Chat" class="cls-15"><path id="Path-23" class="cls-1" d="M304.53,151.47c-1.66-7.63-5.39-15.24-8.11-22.58-1.46-3.89-4.65-9.14-5-13.32a2.61,2.61,0,0,0-2.91-2.26l-55.66-3.76a2.63,2.63,0,0,0-2.54,2.69l11.22,30.09a2.61,2.61,0,0,0,2.91,2.26l44.89,2.87c2.75,1.67,7.11,3.34,9.87,5C302.29,154.31,306.06,158.48,304.53,151.47Z" transform="translate(-86.52 -109.55)"/><g id="Group-6"><path id="Path-24" class="cls-4" d="M264.25,132.31l-18.08-.79a2.21,2.21,0,0,1-2.12-2.3h0a2.21,2.21,0,0,1,2.31-2.12l18.08.79a2.21,2.21,0,0,1,2.12,2.3h0A2.23,2.23,0,0,1,264.25,132.31Z" transform="translate(-86.52 -109.55)"/><path id="Path-25" class="cls-4" d="M277.26,124.82l-32.77-1.42a2.23,2.23,0,0,1-2.12-2.31h0a2.23,2.23,0,0,1,2.31-2.12l32.77,1.43a2.21,2.21,0,0,1,2.12,2.3h0A2.23,2.23,0,0,1,277.26,124.82Z" transform="translate(-86.52 -109.55)"/></g></g><g id="Element"><path id="Path-26" class="cls-1" d="M307.92,195l-28.09-1.22a3.45,3.45,0,0,1-3.28-3.59h0a3.46,3.46,0,0,1,3.59-3.29l28.08,1.23a3.44,3.44,0,0,1,3.29,3.58h0A3.46,3.46,0,0,1,307.92,195Z" transform="translate(-86.52 -109.55)"/><path id="Path-27" class="cls-1" d="M310.72,208.73l-28.08-1.22a3.45,3.45,0,0,1-3.29-3.58h0a3.45,3.45,0,0,1,3.59-3.29L311,201.86a3.45,3.45,0,0,1,3.28,3.59h0A3.45,3.45,0,0,1,310.72,208.73Z" transform="translate(-86.52 -109.55)"/><path id="Path-28" class="cls-1" d="M315.7,222.83l-28.08-1.22a3.46,3.46,0,0,1-3.29-3.59h0a3.45,3.45,0,0,1,3.59-3.29L316,216a3.45,3.45,0,0,1,3.28,3.59h0A3.45,3.45,0,0,1,315.7,222.83Z" transform="translate(-86.52 -109.55)"/></g></g></g></svg>