<svg id="Layer_1" data-name="Layer 1" xmlns="http://www.w3.org/2000/svg" viewBox="0 0 426.91 220.32"><defs><style>.cls-1{fill:#e4e4f3;}.cls-2{fill:#f0504f;}.cls-3{fill:#fdc615;}.cls-4{fill:#fff;}.cls-5{fill:#5960ab;}.cls-6{fill:#8d89c2;}.cls-7{fill:#aaabd6;}.cls-8{fill:#f0f0f8;}.cls-9{fill:#4d3c97;}</style></defs><g id="_18_Site_under_construction" data-name=" 18 Site under construction"><g id="Nature_copy" data-name="Nature copy"><ellipse id="Ground" class="cls-1" cx="150.36" cy="207.47" rx="150.36" ry="12.85"/><g id="Plant"><path id="Path" class="cls-2" d="M598,271.71c3.76-2.63,7.79-6.23,7.46-10.8a37.46,37.46,0,0,0-16.67,3.47c-1.83-2.42,1.14-5.53,3.74-7.1l16.93-10.18a11,11,0,0,0-7.36-2.91c-2.1-5.08,7.94-8.46,7-13.88-.48-2.84-4-4.25-6.84-3.51s-4.91,2.94-6.88,5c1.25-3.58,3.55-6.67,5.39-10S604,214.7,603.23,211s-4.56-6.94-8.23-6c-2.54.66-4.26,3-5.59,5.23a51.37,51.37,0,0,0-6.07,15.9c-.68,3.34-2.63,7.85-5.86,6.77-1.75-.58-2.48-2.59-3.61-4-3.19-4-10.18-3.21-13.45.77s-3.36,9.81-1.71,14.68c1,3,2.39,6.94-.13,8.87s-6.44-.27-9.09,1.4c-3.19,2-1.41,6.85-1,10.61.45,4.49-1.7,8.76-3.47,12.9s-3.23,8.92-1.44,13.06C548.94,303.59,590.5,277,598,271.71Z" transform="translate(-189.66 -179.89)"/><path id="Path-2" class="cls-3" d="M605.57,301.58c1.25-1.19,2.53-2.7,2.32-4.42s-2.08-3-3.88-3.13a11.85,11.85,0,0,0-5.21,1.28c-1-1.35.5-3.14,1.9-4.07,6.27-4.18,14.24-7.88,15.77-15.25a2.4,2.4,0,0,0-.16-1.83,2.27,2.27,0,0,0-1.64-.8c-3.75-.47-7.17,2.16-10.9,2.8-4.11.69-8.25-1.08-12.41-1-3.35.1-6.53,1.41-9.62,2.71-5.75,2.4-11.64,4.9-16.09,9.26-6.67,6.55-16.13,25.58-2.08,29.28C577.15,320,596.06,310.66,605.57,301.58Z" transform="translate(-189.66 -179.89)"/><path id="Path-3" class="cls-4" d="M555,281.12a.65.65,0,0,1-.65-.65.67.67,0,0,1,.16-.43l32.56-36.43a.65.65,0,0,1,1,.87L555.47,280.9A.64.64,0,0,1,555,281.12Z" transform="translate(-189.66 -179.89)"/><path id="Path-4" class="cls-4" d="M572.83,261.16a.65.65,0,0,1-.64-.57l-2.65-20.66a.65.65,0,0,1,1.29-.17l2.65,20.66a.66.66,0,0,1-.57.73Z" transform="translate(-189.66 -179.89)"/><path id="Path-5" class="cls-4" d="M553,317.62a.66.66,0,0,1-.36-1.2L589.53,292a.65.65,0,1,1,.71,1.09h0L553.4,317.51A.76.76,0,0,1,553,317.62Z" transform="translate(-189.66 -179.89)"/><path id="Path-6" class="cls-4" d="M574.87,303.46l-.16,0a.66.66,0,0,1-.47-.8h0l4.14-15.89a.65.65,0,0,1,1.25.33L575.5,303A.66.66,0,0,1,574.87,303.46Z" transform="translate(-189.66 -179.89)"/></g><g id="Plant-2" data-name="Plant"><path id="Path-7" class="cls-5" d="M385.17,305.4q-6.74-5-13.45-10c-13.25-9.86-26.71-19.92-36.5-33.22-3.87-5.27-7.17-11.1-8.43-17.51a5.44,5.44,0,0,1,.31-3.92c1.21-1.93,4-1.79,6.27-1.34a85.48,85.48,0,0,1,19.44,6.5c-3.73-13.79-20-20.41-26.25-33.27-1-2.09-1.73-4.48-1.09-6.7A7.72,7.72,0,0,1,328,202.3c3.84-3.3,9.56-3.6,14.38-2.06s9,4.66,13,7.72a36.68,36.68,0,0,1-12.44-16.07c-1-2.65-1.75-5.71-.52-8.28,2.08-4.35,8.48-4.61,12.68-2.24,8.1,4.58,10.69,14.77,13,23.78s6.28,19.16,15.16,21.93a6.94,6.94,0,0,1,3,1.36c1.54,1.54.76,4.27-.75,5.84s-3.57,2.53-5,4.15c-3.26,3.63-2.51,9.32-.75,13.87s4.35,9,4.2,13.89c-.19,6.06,1.44,13.27,1.76,19.33.14,2.75-4.82,3.56-4.17,6.23s.75,5.75-.93,7.94-5.61,2.6-7,.22" transform="translate(-189.66 -179.89)"/><path id="Path-8" class="cls-4" d="M393.47,297.89a.65.65,0,0,1-.56-.32c-14-24.23-40.6-70.3-41.86-72a.64.64,0,0,1,.77-1c.21.11.7.38,42.21,72.38a.64.64,0,0,1-.56,1Z" transform="translate(-189.66 -179.89)"/><path id="Path-9" class="cls-4" d="M375.64,267h-.1l-27.41-4.42a.65.65,0,0,1-.54-.74.66.66,0,0,1,.75-.54h0l27.4,4.42a.64.64,0,0,1,.54.74.65.65,0,0,1-.64.54Z" transform="translate(-189.66 -179.89)"/></g><g id="Plant-3" data-name="Plant"><g id="Group"><path id="Path-10" class="cls-2" d="M223.11,362a5.37,5.37,0,0,0,2.19-6.18c-1.29-3.64-4.62-2.42-7-4.33-2.79-2.25.59-5.79.4-8.45-.21-2.92-2.84-5.75-3.63-8.58-1.82-6.5,5.57-1.64,7.67-2.4a2.85,2.85,0,0,0,1.67-2.12c.51-2.34-.47-4.22.81-6.43s3.06-3.1,2.53-6c-.3-1.64-1.31-3.15-1.28-4.81a1.4,1.4,0,0,1,.56-1.25,1.28,1.28,0,0,1,1.05,0c1.14.39,1.89,1.46,2.8,2.24s2.39,1.27,3.27.44a3.58,3.58,0,0,0,.76-2.23c.22-1.43,1.22-2.43,2.47-1.6s.84,4.46.64,5.73c-.33,2-.82,4.12-.22,6.08,1,3.24,3.71-.39,4.89-1.46,1-.88,2.59-1.41,3.52-.49,1.85,1.83-1.13,4.27-1.52,6a2.07,2.07,0,0,0,.79,2.24c2.14,1.24,3.95-1,4.28,2.33.22,2.26-1.83,4.42-.56,6.68,1.11,2,4.81,2.82,3.35,5.6-.9,1.7-4.76,1.62-4.56,4,.13,1.59,2.51,2.3,2.51,3.89,0,1.19-1.39,1.9-2.58,2s-2.45-.22-3.55.25a2.88,2.88,0,0,0-1.58,3.36c.33,1.13,1.38,2.16,1.06,3.29-.4,1.36-2.29,1.41-3.69,1.19C234.46,360.12,228.33,359.53,223.11,362Z" transform="translate(-189.66 -179.89)"/><path id="Path-11" class="cls-4" d="M233.92,361.76a.65.65,0,0,1-.65-.65h0V335.59a.65.65,0,1,1,1.29,0v25.52a.64.64,0,0,1-.64.65Z" transform="translate(-189.66 -179.89)"/><path id="Path-12" class="cls-4" d="M233.92,351.82a.65.65,0,0,1-.51-1.05l6.7-8.26a.64.64,0,0,1,.91-.09.65.65,0,0,1,.1.91h0l-6.7,8.25A.62.62,0,0,1,233.92,351.82Z" transform="translate(-189.66 -179.89)"/><path id="Path-13" class="cls-4" d="M233.92,344.85a.62.62,0,0,1-.42-.15l-8-6.71a.66.66,0,0,1-.07-.92.65.65,0,0,1,.9-.08l8,6.72a.65.65,0,0,1,.08.91A.62.62,0,0,1,233.92,344.85Z" transform="translate(-189.66 -179.89)"/></g><g id="Group-2"><path id="Path-14" class="cls-6" d="M222,358.46c1.05,7,2,14.28,3.76,21a3.38,3.38,0,0,0,.67,1.51,2,2,0,0,0,1.52.42c3.05-.07,6.1.12,9.15.11,2.88,0,5.26.21,5.56-4.57.11-1.66.37-18.48,1.9-18.48Z" transform="translate(-189.66 -179.89)"/><path id="Path-15" class="cls-7" d="M242.5,362.63H224.06a4.17,4.17,0,0,1-4.17-4.17h0a4.18,4.18,0,0,1,4.17-4.17H242.5a4.19,4.19,0,0,1,4.17,4.17h0A4.18,4.18,0,0,1,242.5,362.63Z" transform="translate(-189.66 -179.89)"/></g></g></g><g id="UI"><g id="Laptop"><g id="Group-3"><path id="Path-16" class="cls-6" d="M583.18,354.42a6.75,6.75,0,0,1-2.9.47q-55.17,0-110.32.09c-18.41,0-36.84-.08-55.26,0q-13.95,0-27.9.24-7,.12-13.95.31c-3.42.09-7.57.73-10.83-.69a4.38,4.38,0,0,1-2.6-2.33,2.5,2.5,0,0,1-.06-.86c.36-2.48,4.16-6.64,5.65-8.69,3.06-4.21,6.19-8.8,11.69-10.26a37.91,37.91,0,0,1,9.88-.81c58.17,0,116.35.32,174.52.5,3.65,0,8.15.55,10.69,3.33A91.67,91.67,0,0,1,580.46,347C582,349.39,585.81,353.12,583.18,354.42Z" transform="translate(-189.66 -179.89)"/><g id="Group-4"><path id="Path-17" class="cls-7" d="M558.15,334.84H383.91a15.6,15.6,0,0,1-15.56-15.56V195.64a15.6,15.6,0,0,1,15.56-15.56H558.15a15.6,15.6,0,0,1,15.56,15.56V319.28A15.6,15.6,0,0,1,558.15,334.84Z" transform="translate(-189.66 -179.89)"/><path id="Path-18" class="cls-8" d="M389.33,186.81a16.18,16.18,0,0,0-16.14,16.13v84.58C425.71,256,477.07,222.7,526.67,186.81Z" transform="translate(-189.66 -179.89)"/><path id="Path-19" class="cls-1" d="M551.84,186.81H526.67c-49.6,35.88-101,69.19-153.48,100.71V305.8a16.19,16.19,0,0,0,16.14,16.13H551.84A16.19,16.19,0,0,0,568,305.8V202.94A16.18,16.18,0,0,0,551.84,186.81Z" transform="translate(-189.66 -179.89)"/><path id="Path-20" class="cls-1" d="M482,327.78H467.32a.47.47,0,0,1-.48-.48V327a.47.47,0,0,1,.48-.47H482a.47.47,0,0,1,.47.47v.32A.47.47,0,0,1,482,327.78Z" transform="translate(-189.66 -179.89)"/><circle id="Oval" class="cls-1" cx="198.27" cy="3.96" r="1.43"/><circle id="Oval-2" class="cls-4" cx="204.44" cy="3.96" r="1.43"/><circle id="Oval-3" class="cls-9" cx="210.66" cy="3.96" r="1.43"/></g></g><g id="Group-5"><path id="Path-21" class="cls-1" d="M384.61,342.43h-5.76a1.38,1.38,0,0,1-1.38-1.38v-.91a1.39,1.39,0,0,1,1.38-1.38h5.76a1.38,1.38,0,0,1,1.37,1.38v.91A1.37,1.37,0,0,1,384.61,342.43Z" transform="translate(-189.66 -179.89)"/><path id="Path-22" class="cls-1" d="M398.76,342.43H393a1.37,1.37,0,0,1-1.37-1.38v-.91a1.38,1.38,0,0,1,1.37-1.38h5.76a1.39,1.39,0,0,1,1.38,1.38v.91A1.38,1.38,0,0,1,398.76,342.43Z" transform="translate(-189.66 -179.89)"/><path id="Path-23" class="cls-1" d="M412.93,342.43h-5.76a1.38,1.38,0,0,1-1.38-1.38v-.91a1.39,1.39,0,0,1,1.38-1.38h5.76a1.38,1.38,0,0,1,1.37,1.38v.91A1.37,1.37,0,0,1,412.93,342.43Z" transform="translate(-189.66 -179.89)"/><path id="Path-24" class="cls-1" d="M427.08,342.43h-5.75a1.38,1.38,0,0,1-1.38-1.38v-.91a1.39,1.39,0,0,1,1.38-1.38h5.75a1.39,1.39,0,0,1,1.38,1.38v.91A1.38,1.38,0,0,1,427.08,342.43Z" transform="translate(-189.66 -179.89)"/><path id="Path-25" class="cls-1" d="M441.24,342.43h-5.76a1.37,1.37,0,0,1-1.37-1.38v-.91a1.38,1.38,0,0,1,1.37-1.38h5.76a1.39,1.39,0,0,1,1.38,1.38v.91A1.38,1.38,0,0,1,441.24,342.43Z" transform="translate(-189.66 -179.89)"/><path id="Path-26" class="cls-1" d="M455.4,342.43h-5.75a1.38,1.38,0,0,1-1.38-1.38v-.91a1.39,1.39,0,0,1,1.38-1.38h5.75a1.39,1.39,0,0,1,1.38,1.38v.91A1.38,1.38,0,0,1,455.4,342.43Z" transform="translate(-189.66 -179.89)"/><path id="Path-27" class="cls-1" d="M469.56,342.43H463.8a1.37,1.37,0,0,1-1.37-1.38v-.91a1.38,1.38,0,0,1,1.37-1.38h5.76a1.39,1.39,0,0,1,1.38,1.38v.91A1.38,1.38,0,0,1,469.56,342.43Z" transform="translate(-189.66 -179.89)"/><path id="Path-28" class="cls-1" d="M483.72,342.43H478a1.38,1.38,0,0,1-1.38-1.38v-.91a1.39,1.39,0,0,1,1.38-1.38h5.75a1.39,1.39,0,0,1,1.38,1.38v.91A1.38,1.38,0,0,1,483.72,342.43Z" transform="translate(-189.66 -179.89)"/><path id="Path-29" class="cls-1" d="M497.88,342.43h-5.76a1.37,1.37,0,0,1-1.37-1.38v-.91a1.38,1.38,0,0,1,1.37-1.38h5.76a1.39,1.39,0,0,1,1.38,1.38v.91A1.38,1.38,0,0,1,497.88,342.43Z" transform="translate(-189.66 -179.89)"/><path id="Path-30" class="cls-1" d="M512,342.43h-5.76a1.39,1.39,0,0,1-1.38-1.38v-.91a1.4,1.4,0,0,1,1.38-1.38H512a1.39,1.39,0,0,1,1.38,1.38v.91A1.38,1.38,0,0,1,512,342.43Z" transform="translate(-189.66 -179.89)"/><path id="Path-31" class="cls-1" d="M526.2,342.43h-5.76a1.37,1.37,0,0,1-1.37-1.38v-.91a1.38,1.38,0,0,1,1.37-1.38h5.76a1.39,1.39,0,0,1,1.38,1.38v.91A1.38,1.38,0,0,1,526.2,342.43Z" transform="translate(-189.66 -179.89)"/><path id="Path-32" class="cls-1" d="M540.36,342.43H534.6a1.37,1.37,0,0,1-1.37-1.38v-.91a1.38,1.38,0,0,1,1.37-1.38h5.76a1.39,1.39,0,0,1,1.38,1.38v.91A1.38,1.38,0,0,1,540.36,342.43Z" transform="translate(-189.66 -179.89)"/><path id="Path-33" class="cls-1" d="M554.52,342.43h-5.76a1.39,1.39,0,0,1-1.38-1.38v-.91a1.4,1.4,0,0,1,1.38-1.38h5.76a1.39,1.39,0,0,1,1.38,1.38v.91a1.38,1.38,0,0,1-1.38,1.38Z" transform="translate(-189.66 -179.89)"/></g></g><g id="Button"><path id="Path-34" class="cls-1" d="M533.24,285.4h-55.4a17.56,17.56,0,0,1-17.51-17.5h0a17.56,17.56,0,0,1,17.51-17.51h55.4a17.56,17.56,0,0,1,17.51,17.51h0A17.56,17.56,0,0,1,533.24,285.4Z" transform="translate(-189.66 -179.89)"/><g id="Group-6"><path id="Path-35" class="cls-7" d="M407,226.75a1.29,1.29,0,0,1-.91-.37l-7.73-7.52,7.71-7.87a1.3,1.3,0,1,1,1.87,1.8h0l-5.89,6,5.87,5.7a1.31,1.31,0,0,1,0,1.84A1.27,1.27,0,0,1,407,226.75Z" transform="translate(-189.66 -179.89)"/><path id="Path-36" class="cls-7" d="M421.69,226.75a1.29,1.29,0,0,1-1.29-1.3,1.32,1.32,0,0,1,.36-.91l5.89-6-5.86-5.7A1.3,1.3,0,0,1,422.6,211l7.73,7.52-7.71,7.87A1.26,1.26,0,0,1,421.69,226.75Z" transform="translate(-189.66 -179.89)"/><path id="Path-37" class="cls-7" d="M410.29,232.68a1.29,1.29,0,0,1-1.29-1.3,1.34,1.34,0,0,1,.06-.4l8.1-24.75a1.29,1.29,0,0,1,2.46.81l-8.1,24.75A1.29,1.29,0,0,1,410.29,232.68Z" transform="translate(-189.66 -179.89)"/></g></g></g><g id="Nature"><g id="Plant-4" data-name="Plant"><path id="Path-38" class="cls-5" d="M400.4,336.77l-1.77.75c.92-7.31.95-14.69,1.24-22,.09-2.33-.63-7.24,1.47-8.28,2.71-1.33,5.92,1.43,8.66.19,3.11-1.4,2.53-5,3.13-7.78.5-2.31,3.63-13.54,7.1-7.95,5.23-3.35,9.71-10.85,16.24-11.83a3,3,0,0,1,3.11,1.33,3.82,3.82,0,0,1,.23,2.09,12.18,12.18,0,0,1-1.59,4.78,15.49,15.49,0,0,0-1.62,3,2.89,2.89,0,0,0,.67,3.11,6,6,0,0,0,2.82.74c1,.17,2.05.84,2,1.82a2.4,2.4,0,0,1-.48,1c-9.81,14.51-14.43,32.22-28.32,43.66-2.1,1.73-4.46,3.36-7.17,3.67-3.17.36-6.32-1.22-8.58-3.47a30.21,30.21,0,0,1-5.24-7.95" transform="translate(-189.66 -179.89)"/><path id="Path-39" class="cls-3" d="M436.09,361.19c6.16-1.28,12.68-2.9,17-7.5L442.36,352a1.89,1.89,0,0,1-1.3-.59c-.46-.65.09-1.53.66-2.09,3.67-3.54,9.1-4.4,13.7-6.6,1.37-.65,2.81-1.62,3.05-3.11a3.57,3.57,0,0,0-2.54-3.6,10.33,10.33,0,0,0-4.73-.17l9.2-11.37a4.55,4.55,0,0,0,1.23-2.35c.16-1.86-2.11-3.17-3.95-2.79s-3.22,1.82-4.49,3.2a81.74,81.74,0,0,0,6.26-18.32c.42-1.93.63-4.27-.84-5.58s-3.86-.79-5.29.53-2.14,3.21-2.91,5a53.56,53.56,0,0,1-8.54,13.67,3.68,3.68,0,0,1-1.41,1.15c-1.78.62-3.26-1.6-3.41-3.48s.19-4-1.06-5.41c-1.43-1.61-4.21-1.17-5.75.33s-2.15,3.68-2.7,5.75l-2.78,10.45a14,14,0,0,0-5-3.15c-1.9-.54-4.24-.09-5.3,1.58a8.23,8.23,0,0,0-.89,2.86c-1.72,8.62-8.14,15.66-10.32,24.19-1.64,6.37.6,14.76,8.53,14.06S428.28,362.82,436.09,361.19Z" transform="translate(-189.66 -179.89)"/><path id="Path-40" class="cls-4" d="M407.17,363.8a.63.63,0,0,1-.46-.2.65.65,0,0,1,0-.92l37.11-35.57a.65.65,0,0,1,.91.92l0,0-37.11,35.57A.67.67,0,0,1,407.17,363.8Z" transform="translate(-189.66 -179.89)"/><path id="Path-41" class="cls-4" d="M420,351.48h-.09a.65.65,0,0,1-.56-.73l2.35-16.86a.65.65,0,0,1,1.29.18l-2.35,16.86A.65.65,0,0,1,420,351.48Z" transform="translate(-189.66 -179.89)"/><path id="Path-42" class="cls-4" d="M430.1,341.82a.64.64,0,0,1-.11-1.28l14.19-2.41a.65.65,0,0,1,.74.54.66.66,0,0,1-.52.74l-14.19,2.41Z" transform="translate(-189.66 -179.89)"/><path id="Path-43" class="cls-4" d="M402.77,334.62a.64.64,0,0,1-.38-.12.65.65,0,0,1-.14-.91l24.67-33.48a.64.64,0,0,1,.9-.14.63.63,0,0,1,.14.9h0l-24.67,33.49A.62.62,0,0,1,402.77,334.62Z" transform="translate(-189.66 -179.89)"/><path id="Path-44" class="cls-4" d="M418.53,313.23l-.16,0a.65.65,0,0,1-.46-.79h0l3.84-14.76a.65.65,0,0,1,.79-.46.65.65,0,0,1,.46.79l-3.84,14.76A.65.65,0,0,1,418.53,313.23Z" transform="translate(-189.66 -179.89)"/></g></g><g id="UI-2" data-name="UI"><g id="Tablet"><path id="Path-45" class="cls-7" d="M407.22,385.32h-140a8.35,8.35,0,0,1-8.33-8.33V275.63a8.36,8.36,0,0,1,8.33-8.33h140a8.36,8.36,0,0,1,8.33,8.33V377A8.36,8.36,0,0,1,407.22,385.32Z" transform="translate(-189.66 -179.89)"/><path id="Path-46" class="cls-1" d="M403.15,375.48H270.66a8,8,0,0,1-8-8v-87a8,8,0,0,1,8-8h132.5a8.05,8.05,0,0,1,8,8v87A8.06,8.06,0,0,1,403.15,375.48Z" transform="translate(-189.66 -179.89)"/><path id="Path-47" class="cls-1" d="M345.51,379.94h-11a.48.48,0,0,1-.48-.49h0a.48.48,0,0,1,.48-.48h11a.49.49,0,0,1,.49.48h0a.48.48,0,0,1-.48.49Z" transform="translate(-189.66 -179.89)"/><circle id="Oval-4" class="cls-1" cx="77.63" cy="90.29" r="1.09"/><circle id="Oval-5" class="cls-4" cx="82.34" cy="90.29" r="1.09"/><circle id="Oval-6" class="cls-9" cx="87.09" cy="90.29" r="1.09"/><g id="Group-7"><path id="Path-48" class="cls-4" d="M343.44,330.81H277a1.3,1.3,0,0,1-1.3-1.3h0a1.3,1.3,0,0,1,1.3-1.29h66.48a1.31,1.31,0,0,1,1.3,1.29h0A1.31,1.31,0,0,1,343.44,330.81Z" transform="translate(-189.66 -179.89)"/><path id="Path-49" class="cls-4" d="M343.44,336.76H277a1.3,1.3,0,0,1-1.3-1.3h0a1.31,1.31,0,0,1,1.3-1.3h66.48a1.32,1.32,0,0,1,1.3,1.3h0A1.31,1.31,0,0,1,343.44,336.76Z" transform="translate(-189.66 -179.89)"/><path id="Path-50" class="cls-4" d="M343.44,342.71H277a1.3,1.3,0,0,1-1.3-1.3h0a1.31,1.31,0,0,1,1.3-1.3h66.48a1.32,1.32,0,0,1,1.3,1.3h0A1.31,1.31,0,0,1,343.44,342.71Z" transform="translate(-189.66 -179.89)"/><path id="Path-51" class="cls-4" d="M343.44,349.42H277a1.31,1.31,0,0,1-1.3-1.3h0a1.3,1.3,0,0,1,1.3-1.3h66.48a1.31,1.31,0,0,1,1.3,1.3h0A1.31,1.31,0,0,1,343.44,349.42Z" transform="translate(-189.66 -179.89)"/><path id="Path-52" class="cls-4" d="M343.44,355.37H277a1.31,1.31,0,0,1-1.3-1.3h0a1.3,1.3,0,0,1,1.3-1.3h66.48a1.31,1.31,0,0,1,1.3,1.3h0A1.32,1.32,0,0,1,343.44,355.37Z" transform="translate(-189.66 -179.89)"/><path id="Path-53" class="cls-4" d="M343.44,361.32H277a1.31,1.31,0,0,1-1.3-1.3h0a1.3,1.3,0,0,1,1.3-1.3h66.48a1.31,1.31,0,0,1,1.3,1.3h0A1.32,1.32,0,0,1,343.44,361.32Z" transform="translate(-189.66 -179.89)"/></g><path id="Path-54" class="cls-4" d="M291.22,316.75h38a15.61,15.61,0,0,0,15.56-15.56v-2.78a15.6,15.6,0,0,0-15.56-15.56h-38a15.59,15.59,0,0,0-15.56,15.56v2.78A15.6,15.6,0,0,0,291.22,316.75Z" transform="translate(-189.66 -179.89)"/><path id="Path-55" class="cls-4" d="M374.91,342.21h7.64a15.6,15.6,0,0,0,15.56-15.56V298.41a15.59,15.59,0,0,0-15.56-15.56h-7.64a15.6,15.6,0,0,0-15.56,15.56v28.24A15.61,15.61,0,0,0,374.91,342.21Z" transform="translate(-189.66 -179.89)"/><path id="Path-56" class="cls-4" d="M366.35,359.76h24.77a7,7,0,0,0,7-7h0a7,7,0,0,0-7-7H366.35a7,7,0,0,0-7,7h0A7,7,0,0,0,366.35,359.76Z" transform="translate(-189.66 -179.89)"/></g></g></g></svg>