<svg id="Layer_1" data-name="Layer 1" xmlns="http://www.w3.org/2000/svg" viewBox="0 0 490.75 407.46"><defs><style>.cls-1{fill:#aaabd6;}.cls-2{fill:#e4e4f3;}.cls-3{fill:#fff;}.cls-4{fill:#4d3c97;}.cls-5{fill:#fdc615;}.cls-6{fill:#f0504f;}.cls-7{fill:#e9c2ab;}.cls-8{fill:#5960ab;}.cls-9{fill:#d4a79b;}.cls-10{fill:#2d2b76;}.cls-11{fill:#d7384e;}</style></defs><g id="_3_Creative_design" data-name=" 3 Creative design"><g id="UI"><g id="Desktop"><g id="Group"><path id="Path" class="cls-1" d="M577.29,310.58H202a18.48,18.48,0,0,1-18.42-18.42V18.41A18.46,18.46,0,0,1,202,0H577.29a18.46,18.46,0,0,1,18.42,18.41V292.16A18.48,18.48,0,0,1,577.29,310.58Z" transform="translate(-104.96 0)"/><path id="Path-2" class="cls-2" d="M565.78,284.67H211.71a18.47,18.47,0,0,1-18.41-18.42V31.92A18.47,18.47,0,0,1,211.71,13.5H565.78A18.48,18.48,0,0,1,584.2,31.92V266.25A18.48,18.48,0,0,1,565.78,284.67Z" transform="translate(-104.96 0)"/><path id="Path-3" class="cls-2" d="M411.4,296.41H382.5a1.28,1.28,0,0,1-1.28-1.28h0a1.28,1.28,0,0,1,1.28-1.28h28.9a1.28,1.28,0,0,1,1.31,1.25v0h0a1.28,1.28,0,0,1-1.28,1.28Z" transform="translate(-104.96 0)"/><circle id="Oval" class="cls-2" cx="100.59" cy="7.56" r="2.88"/><circle id="Oval-2" class="cls-3" cx="112.97" cy="7.56" r="2.88"/><circle id="Oval-3" class="cls-4" cx="125.46" cy="7.56" r="2.88"/><g id="Group-2"><path id="Path-4" class="cls-3" d="M301.06,167.12H231a3.42,3.42,0,0,1-3.42-3.42h0a3.42,3.42,0,0,1,3.42-3.42h70.09a3.44,3.44,0,0,1,3.42,3.42h0A3.44,3.44,0,0,1,301.06,167.12Z" transform="translate(-104.96 0)"/><path id="Path-5" class="cls-3" d="M301.06,182.78H231a3.43,3.43,0,0,1-3.42-3.42h0a3.42,3.42,0,0,1,3.42-3.42h70.09a3.43,3.43,0,0,1,3.42,3.42h0A3.44,3.44,0,0,1,301.06,182.78Z" transform="translate(-104.96 0)"/><path id="Path-6" class="cls-3" d="M301.06,198.43H231a3.42,3.42,0,0,1-3.42-3.42h0a3.43,3.43,0,0,1,3.42-3.42h70.09a3.44,3.44,0,0,1,3.42,3.42h0A3.43,3.43,0,0,1,301.06,198.43Z" transform="translate(-104.96 0)"/><path id="Path-7" class="cls-3" d="M301.06,216.09H231a3.43,3.43,0,0,1-3.42-3.42h0a3.42,3.42,0,0,1,3.42-3.42h70.09a3.43,3.43,0,0,1,3.42,3.42h0A3.44,3.44,0,0,1,301.06,216.09Z" transform="translate(-104.96 0)"/><path id="Path-8" class="cls-3" d="M301.06,231.73H231a3.42,3.42,0,0,1-3.42-3.42h0a3.43,3.43,0,0,1,3.42-3.42h70.09a3.44,3.44,0,0,1,3.42,3.42h0A3.43,3.43,0,0,1,301.06,231.73Z" transform="translate(-104.96 0)"/><path id="Path-9" class="cls-3" d="M301.06,247.4H231a3.42,3.42,0,0,1-3.42-3.42h0a3.43,3.43,0,0,1,3.42-3.42h70.09a3.44,3.44,0,0,1,3.42,3.42h0A3.43,3.43,0,0,1,301.06,247.4Z" transform="translate(-104.96 0)"/></g><g id="Group-3"><path id="Path-10" class="cls-3" d="M405.94,167.12H335.85a3.42,3.42,0,0,1-3.42-3.42h0a3.42,3.42,0,0,1,3.42-3.42h70.09a3.44,3.44,0,0,1,3.42,3.42h0A3.44,3.44,0,0,1,405.94,167.12Z" transform="translate(-104.96 0)"/><path id="Path-11" class="cls-3" d="M405.94,182.78H335.85a3.43,3.43,0,0,1-3.42-3.42h0a3.42,3.42,0,0,1,3.42-3.42h70.09a3.43,3.43,0,0,1,3.42,3.42h0A3.44,3.44,0,0,1,405.94,182.78Z" transform="translate(-104.96 0)"/><path id="Path-12" class="cls-3" d="M405.94,198.43H335.85a3.42,3.42,0,0,1-3.42-3.42h0a3.43,3.43,0,0,1,3.42-3.42h70.09a3.44,3.44,0,0,1,3.42,3.42h0A3.43,3.43,0,0,1,405.94,198.43Z" transform="translate(-104.96 0)"/><path id="Path-13" class="cls-3" d="M405.94,216.09H335.85a3.43,3.43,0,0,1-3.42-3.42h0a3.42,3.42,0,0,1,3.42-3.42h70.09a3.43,3.43,0,0,1,3.42,3.42h0A3.44,3.44,0,0,1,405.94,216.09Z" transform="translate(-104.96 0)"/><path id="Path-14" class="cls-3" d="M405.94,231.73H335.85a3.42,3.42,0,0,1-3.42-3.42h0a3.43,3.43,0,0,1,3.42-3.42h70.09a3.44,3.44,0,0,1,3.42,3.42h0A3.43,3.43,0,0,1,405.94,231.73Z" transform="translate(-104.96 0)"/><path id="Path-15" class="cls-3" d="M405.94,247.4H335.85a3.42,3.42,0,0,1-3.42-3.42h0a3.43,3.43,0,0,1,3.42-3.42h70.09a3.44,3.44,0,0,1,3.42,3.42h0A3.43,3.43,0,0,1,405.94,247.4Z" transform="translate(-104.96 0)"/></g><g id="Group-4"><path id="Path-16" class="cls-1" d="M500,99c-8.07-2-10.09-26.23-18.16-26.23-17.73,1.61-23.87,25.1-33.85,42.71a15.6,15.6,0,0,0,15.3,12.82h71a15.62,15.62,0,0,0,15.59-15.6V61.84a14.79,14.79,0,0,0-7.51,2.89C528.2,76.83,518.11,103.06,500,99Z" transform="translate(-104.96 0)"/><path id="Path-17" class="cls-3" d="M534.4,40.89h-71a15.6,15.6,0,0,0-15.55,15.56v56.28a15.69,15.69,0,0,0,.25,2.74c10-17.61,16.13-41.1,33.86-42.71C490,72.76,492.05,97,500.12,99c18.15,4,28.24-22.2,42.37-34.3A14.72,14.72,0,0,1,550,61.8V56.41A15.6,15.6,0,0,0,534.4,40.89Z" transform="translate(-104.96 0)"/><circle id="Oval-4" class="cls-1" cx="508.96" cy="68.14" r="8.95" transform="translate(159.43 519.66) rotate(-69.18)"/></g><path id="Path-18" class="cls-3" d="M246,130.12H391a18.47,18.47,0,0,0,18.38-18.39V59.31A18.46,18.46,0,0,0,390.94,40.9h-145a18.47,18.47,0,0,0-18.42,18.41v52.42A18.48,18.48,0,0,0,246,130.12Z" transform="translate(-104.96 0)"/><path id="Path-19" class="cls-3" d="M466.23,197.12h65.18a18.46,18.46,0,0,0,18.41-18.39h0a18.46,18.46,0,0,0-18.41-18.41H466.23a18.47,18.47,0,0,0-18.42,18.41h0A18.48,18.48,0,0,0,466.23,197.12Z" transform="translate(-104.96 0)"/><path id="Path-20" class="cls-3" d="M466.23,243.32h65.18a18.46,18.46,0,0,0,18.41-18.41h0a18.47,18.47,0,0,0-18.41-18.42H466.23a18.48,18.48,0,0,0-18.42,18.42h0A18.47,18.47,0,0,0,466.23,243.32Z" transform="translate(-104.96 0)"/></g><ellipse id="Oval-5" class="cls-2" cx="291.99" cy="395.08" rx="135.56" ry="9.24"/></g><g id="Server"><g id="Group-5"><path id="Path-21" class="cls-1" d="M239,369.73H170a7.06,7.06,0,0,1-7-7V360a7,7,0,0,1,7-7H239a7,7,0,0,1,7,7v2.7A7.06,7.06,0,0,1,239,369.73Z" transform="translate(-104.96 0)"/><path id="Path-22" class="cls-1" d="M239,387.89H170a7,7,0,0,1-7-7v-2.65a7.06,7.06,0,0,1,7-7H239a7.06,7.06,0,0,1,7,7v2.65A7,7,0,0,1,239,387.89Z" transform="translate(-104.96 0)"/><path id="Path-23" class="cls-1" d="M239,406.25H170a7,7,0,0,1-7-7V396.6a7.06,7.06,0,0,1,7-7H239a7.06,7.06,0,0,1,7,7v2.65A7.06,7.06,0,0,1,239,406.25Z" transform="translate(-104.96 0)"/></g><circle id="Oval-6" class="cls-3" cx="64.74" cy="361.23" r="1.92"/><circle id="Oval-7" class="cls-3" cx="133.81" cy="361.23" r="1.92"/><circle id="Oval-8" class="cls-3" cx="65.13" cy="378.75" r="1.92"/><circle id="Oval-9" class="cls-3" cx="134.19" cy="378.75" r="1.92"/><circle id="Oval-10" class="cls-3" cx="65.13" cy="397.79" r="1.92"/><circle id="Oval-11" class="cls-3" cx="134.19" cy="397.79" r="1.92"/></g><path id="Paint" class="cls-5" d="M288.48,61l.71-.49c7.45-5.07,16.38-9.26,25.22-7.53C330,56,337.16,73.25,347.11,83.63c7.13,7.45,18.18,13,28.87,11.92,9-.92,10.53-10.62,8.39-17.93a13.81,13.81,0,0,0-4.26-7.07c-2-1.65-7.11-3.93-9.78-2.48,4.59-2.5,10.57-1.26,14.67,2,13.87,11,10.37,34.44-4.49,42.69-11.51,6.39-25.57.77-34.64-7.32-10.26-9.14-13.44-23.31-23-33-2.56-2.59-5.43-4.87-9.3-4.54-7.66.64-8.92,8.76-14.06,12.81a5.7,5.7,0,0,1-4.72,1.3,12,12,0,0,1-3.29-1.72c-4.84-2.94-18.61-2.42-11.61-11.54A37.3,37.3,0,0,1,288.48,61Z" transform="translate(-104.96 0)"/><g id="Brush"><g id="Group-6"><path id="Path-24" class="cls-4" d="M205.71,146.36c-3.6,4-8.26,8.82-10.36,13.95a1.6,1.6,0,0,0-.11,1.3c2.71,5.2,43-32.55,47.29-36.47,9-8.25,17.4-14.58,25.2-24,1.5-1.82,3-3.78,3.41-6.16.23-1.47-6.66,1.59-8,2.27-10.22,5.19-22.22,14.31-30.57,22C223.26,127.85,214.21,136.88,205.71,146.36Z" transform="translate(-104.96 0)"/><g id="Group-7"><path id="Path-25" class="cls-6" d="M284.57,79.52a21.11,21.11,0,0,0-1.43-5.58c-1.75-4.21-4.94-8.22-9.63-9.13,7.61,4.79.32,14.12-5.15,17.9a22.9,22.9,0,0,1-4.44,2.39c-4.1,1.66-9.54,2.94-10.59,8C266.76,93.4,276.76,87.89,284.57,79.52Z" transform="translate(-104.96 0)"/><path id="Path-26" class="cls-1" d="M253.33,93v.13c-1.52,8,3.65,16.09,12.49,14.62,12.31-2.05,20.25-16.19,18.79-28.28C276.76,87.89,266.76,93.4,253.33,93Z" transform="translate(-104.96 0)"/></g></g></g></g><g id="Characters"><g id="Woman"><g id="Leg"><path id="Skin" class="cls-7" d="M134,368.67l2.61,24.69-8.17,1.72-1.19-25.92S131.52,367.58,134,368.67Z" transform="translate(-104.96 0)"/><path id="Shoe" class="cls-5" d="M167.71,406.45s-6.11,1.35-17.5.93-24-1.41-26.14-3.34-2-16.34,1.78-15.92,4.62,6,11.8,1.91c6.15-3.53,9.82,4.83,19.49,8S170.71,402.54,167.71,406.45Z" transform="translate(-104.96 0)"/><path id="Leg-2" class="cls-4" d="M155.49,375.5a7.11,7.11,0,0,0-2.25-2.25c-7.93-6.32-6-16-4.73-24.4,3-20-.21-40.15-1.41-60.15a202.1,202.1,0,0,1,5.24-58.15C154,223.64,156.2,213,145.5,215a41.71,41.71,0,0,1-15.11-.11c-2.66-.47,0-1.34-2.66-.47-9.24,3-12.69,20.4-10.8,26.49,3.78,12.11,5,23.73,5.62,36.56.87,18.19,3.9,36.39,1.74,54.44-1.06,8.84-2.29,17.66-3.46,26.49-.69,5.15-5,16.43-2.11,21.09,4,6.4,21.63,1,27.53.83C150.71,380.18,156.78,378.51,155.49,375.5Z" transform="translate(-104.96 0)"/></g><g id="Leg-3"><path id="Skin-2" class="cls-7" d="M184.45,315.36,179,339.92l-8.4-1,7.2-25.29S182.47,313.53,184.45,315.36Z" transform="translate(-104.96 0)"/><path id="Shoe-2" class="cls-5" d="M211.71,351.84S205.53,353.27,194,353s-24.37-1.2-26.52-3.14-2.17-16.54,1.65-16.15,4.74,6.06,12,1.82c6.2-3.63,10,4.8,19.82,7.95S214.71,347.85,211.71,351.84Z" transform="translate(-104.96 0)"/><path id="Leg-4" class="cls-8" d="M214.93,237.83c-5.42-8.19-23.94-8.1-40.94-6l-21.09-1.25-2.87-8-33.59,10.27c1.06-.18.89,13.34,1.51,14.52,4.8,9.2,18.46,16.81,29.42,17,13,.17,25.29-3.58,37.46-7.6,22.09-7.29-8.89,38.75-15.92,53.33s.7,13.82,18.24,13,9.26.39,12.25-11.8S225.65,254,214.93,237.83Z" transform="translate(-104.96 0)"/></g><g id="Head"><path id="Neck" class="cls-9" d="M148.62,128.26l-2.52,18.47c-4.46,1.31-9.13,3.82-13.82,3.81.21-3.43,3.56-7.34,5.1-10.57a25.8,25.8,0,0,0,3-12.38C139.82,116.08,148.62,128.26,148.62,128.26Z" transform="translate(-104.96 0)"/><path id="Hair" class="cls-10" d="M170.85,89.73c.77.26,3.07,9-1,14.59s-1.72,4.86-5.72,8.69-6.82,4.67-6.82,4.67l-4.6,1.73.51-9.47,4.57-15.09,14.4-5.12" transform="translate(-104.96 0)"/><path id="Face" class="cls-7" d="M160,91.73s7.24,4.94,3.4,16.71c-4.12,12.59-10,23.14-13.86,22.05-10.52-3-13.65-10.89-16.83-17.68-3.89-8.34,6.74-27,6.74-27l8.91-3.9Z" transform="translate(-104.96 0)"/><path id="Hair-2" class="cls-4" d="M176.39,88.86c1.18-2.94-.14-8.46-2.18-10.5a4.09,4.09,0,0,0-2.89-1.31,9.71,9.71,0,0,1-2.41.14c-2.35-.6-2.34-2.6-4.5-3.5-1.6-.67-3.31.7-5,1a9.16,9.16,0,0,1-3.84-.63C152,73,148.85,71,145.19,70.25a15.54,15.54,0,0,0-9.29.73,13.66,13.66,0,0,0-6.81,7.32,11.28,11.28,0,0,0-.87,6.25c-.3-1.72-3.48-.16-4,.46-2.14,2.45-7.54,9.6-6.76,12.72.61,2.46-1.29,4.7-.75,7.19.64,3,8.42,4.69,9.81,7.4a8.15,8.15,0,0,0,8.35,4.34,29.87,29.87,0,0,1-1.43-8.44c.05-2.88-2.68-16.15,11.67-17.78,5.6-.71,12,4.55,17.6,5.29a19,19,0,0,0,8-.79c2-.62,4.12-3.35,5.36-5.37A3.77,3.77,0,0,0,176.39,88.86Z" transform="translate(-104.96 0)"/></g><path id="Arm" class="cls-7" d="M237.19,129.09c-.34-.15-.71.16-1,.44q-3.47,3.84-6.94,7.66a5.31,5.31,0,0,1-1.52,1.31,1.77,1.77,0,0,1-1.9-.15,2.64,2.64,0,0,1-.52-2.28c.11-1.23,2.14-3.66.2-4.19-2.76,1.34-5.4,7-6.21,9.88-1.09,3,1.37,5.2-.29,7.82-3.08,4.87-6.08,9.78-9.41,14.48-1.74,2.47-3.53,4.9-5.34,7.32-.81,1.09-4.21,7.11-5.4,7.23-4,5.33-7.77,10.87-12,16-1.62,1.95-14-9.27-14-9.27-10.87-8.4-12.71-15-12.71-15l-9.5,2.39s3.38,8.6,10,14.27c7.23,6.18,16.46,15.94,21.53,19.75s5.42,1.95,7.33.12c4-3.88,7-9.81,10.08-14.42,5.35-8,10.64-16,15.76-24.07,2.48-3.93,5.1-8.12,7.36-12.31,2.17-4,4-6.21,8-8.54a11.91,11.91,0,0,0,5.82-8.91c.42-2.76.18-5.61,1-8.32C237.56,129.86,237.61,129.26,237.19,129.09Z" transform="translate(-104.96 0)"/><g id="Body"><path id="Path-37" class="cls-11" d="M152.46,182.54c-1.16-11.13,4.21-28.85-2.27-37.89a9,9,0,0,0-2.35-2.46c-12.21-7.65-20.65,4.25-24.55,14.72-3.39,9.08-3,17.44-3.22,26.91-.42,16-4.14,31.5-8.88,46.68-1.69,5.41-2.14,11.72,2.65,12.54,6.46,1.11,7.86-6.86,14-8.91,5.63-1.88,10.19-.73,16.35-.39,3.05.17,13-1.85,12.42-7.53-1.44-13.46-3.61-25.08-3.68-34.46A87,87,0,0,0,152.46,182.54Z" transform="translate(-104.96 0)"/><path id="Path-38" class="cls-6" d="M162.45,168.8s-13.21-27.1-21.63-18.73S152,185.78,152,185.78l13.62-13.95Z" transform="translate(-104.96 0)"/></g><path id="Hair-3" class="cls-4" d="M161.79,90.49c3.15-1.8,4.07-5.87,4.39-9.49.34-3.92.28-9.23-3-12a12.43,12.43,0,0,0-4.44-2.21c-7.83-2.36-17.29-1.7-24.9,1.18-7.77,3-13.52,9.67-16.27,17.39a35,35,0,0,0-2,12.13c0,4.35,2,8.87-1.41,12.47a14.61,14.61,0,0,0,3.6-.45c-4.3,1.1-11.22,1.34-11.4,7.49-.07,2.45,1.53,4.59,2.87,6.64s2.53,4.6,1.6,6.87c-1.18,2.87-5.26,4-5.79,7.05-.63,3.63,2.8,5.29,4.18,8.12,1.74,3.56.07,7.71-.33,11.4-.35,3.28,2.67,4.78,4.64,6.74,5.73,5.67,5.65,12.12-.61,18.38a.51.51,0,0,0,0,.53.77.77,0,0,0,.48.28c8.09,2.12,18.59-5.7,20.46-13.49.84-3.51-1.31-6.8-.37-10.17.75-2.69,3.49-4.22,5.86-5.7,5.5-3.44,4.41-12.2,3.71-18.65-.61-5.63.85-6.7-2.36-11.36a41.74,41.74,0,0,1-4.08-7.81c-1.47-3.63-3.18-1.2-3.05-5.11a13.88,13.88,0,0,1,5.74-10.79,15.23,15.23,0,0,1,6.12-2.61c2.33-.42,4.69-.81,6.5-2.44s4-5,6.63-4.76c3.26.29,7-.52,8.69-3.32" transform="translate(-104.96 0)"/></g></g></g></svg>