<svg id="Layer_1" data-name="Layer 1" xmlns="http://www.w3.org/2000/svg" viewBox="0 0 557.73 247.07"><defs><style>.cls-1{fill:#e4e4f3;}.cls-2{fill:#8d89c2;}.cls-3{fill:#5960ab;}.cls-4{fill:#fff;}.cls-5{fill:#fdc615;}.cls-6{fill:#aaabd6;}.cls-7{fill:#f0504f;}</style></defs><g id="_9_404_error" data-name=" 9 404 error"><g id="UI"><g id="_404_Error" data-name="404 Error"><ellipse id="Oval" class="cls-1" cx="300.29" cy="181.08" rx="60.21" ry="8.14"/><ellipse id="Oval-2" class="cls-1" cx="417.11" cy="220.81" rx="60.21" ry="8.14"/><path id="Shape" class="cls-2" d="M402.52,283q-12.87-9.18-19.38-25.41A94.22,94.22,0,0,1,378.28,238a162.42,162.42,0,0,1-1.54-23.22,222.11,222.11,0,0,1,1.7-29,95.89,95.89,0,0,1,5.34-22.2q6.3-15.37,18.31-23.43t28.67-8.06a53.33,53.33,0,0,1,20,3.58,45.39,45.39,0,0,1,15.75,10.46,60,60,0,0,1,11.48,17q8.1,17.61,8.11,49.86a182.22,182.22,0,0,1-2.14,30.1,70,70,0,0,1-7.9,22.84,52.4,52.4,0,0,1-18.79,19.43A51,51,0,0,1,402.52,283Z" transform="translate(-121.51 -132.05)"/><path id="Shape-2" class="cls-2" d="M559.45,334.87q-3.69-4.11-3.69-12.11V302.9H502.17q-10.14,0-15.21-4.59t-5.08-12.49a12.31,12.31,0,0,1,.75-4.12,21.72,21.72,0,0,1,2.24-4.37q1.5-2.29,3.1-4.43c1.07-1.43,2.39-3.17,3.95-5.24L548.5,192a85.52,85.52,0,0,1,9.13-10.83,12.08,12.08,0,0,1,8.6-3.37q16.21,0,16.22,18.58V279H587q8.22,0,13.19,2.25t5,9.82q0,6.19-4.05,9T589,302.9h-6.51v19.86q0,8.22-3.63,12.22a13.61,13.61,0,0,1-19.38-.11Z" transform="translate(-121.51 -132.05)"/><g id="Group"><ellipse id="Oval-3" class="cls-1" cx="182.29" cy="232.61" rx="60.21" ry="8.14"/><path id="Shape-3" class="cls-2" d="M325.41,347.81q-3.69-4.1-3.69-12.11V315.84H268.13q-10.14,0-15.22-4.59t-5.07-12.49a12.06,12.06,0,0,1,.75-4.12,21,21,0,0,1,2.24-4.37q1.5-2.29,3.1-4.43c1.07-1.43,2.38-3.17,3.95-5.24l56.58-75.69a87.37,87.37,0,0,1,9.13-10.84,12.1,12.1,0,0,1,8.59-3.36q16.23,0,16.23,18.57v82.64H353q8.22,0,13.19,2.24t5,9.83q0,6.18-4.06,9t-12.17,2.83h-6.51v19.85q0,8.24-3.63,12.23a13.61,13.61,0,0,1-19.38-.11Z" transform="translate(-121.51 -132.05)"/></g></g></g><g id="Nature"><g id="Plant"><path id="Path" class="cls-3" d="M590.27,276.06c.43-2.54,1-5.23,3.45-7.07,3.09-2.33,8.15-2.63,12.36-1.79s8,2.67,12.16,3.89a5.55,5.55,0,0,0,3.48.17,3.74,3.74,0,0,0,2-2.34c4-10.67-.23-21.85-.17-32.59,0-2.92.35-6.15,2.39-8.64,5.3-6.88,7.4-3.15,12.26-10.72,3.41-5.28,4.13-15.19,10-18.64,12.08-7.15,11.79,19.4,12.66,25.49,1.64,11.55,17.68,11,14.65,25-1.32,6.08-5.34,11-8,16.49s-3.45,12.6,1.82,16.79c3.44,2.73,9.46,4.28,9.92,8.27.27,2.35-1.81,4.22-3.8,5.75a176.78,176.78,0,0,1-15.68,10.76c-1.38.84-2.85,1.74-3.33,3.05-.67,1.79.71,3.77,1.72,5.63,3.73,6.87,2.15,14.43-2.72,20s-12.59,9.55-20.61,12.9a219,219,0,0,1-32.63,10.74c-33.5,6.77-21.91-18.89-20.49-28.15Q585.57,303.24,590.27,276.06Z" transform="translate(-121.51 -132.05)"/><path id="Path-2" class="cls-4" d="M610.67,349.44a.66.66,0,0,1-.28-.05.77.77,0,0,1-.44-1h0L648.51,247.7a.76.76,0,0,1,1.42.54L611.38,349A.76.76,0,0,1,610.67,349.44Z" transform="translate(-121.51 -132.05)"/><path id="Path-3" class="cls-4" d="M632.58,292.13a.76.76,0,0,1-.66-.39L625.1,279.6a.76.76,0,0,1,.26-1,.75.75,0,0,1,1,.26l0,0L633.24,291a.75.75,0,0,1-.28,1h0A.69.69,0,0,1,632.58,292.13Z" transform="translate(-121.51 -132.05)"/><path id="Path-4" class="cls-4" d="M638.19,277.91a.75.75,0,0,1-.69-.44.77.77,0,0,1,.37-1l12.64-5.84a.77.77,0,0,1,.64,1.39l-12.64,5.83A.71.71,0,0,1,638.19,277.91Z" transform="translate(-121.51 -132.05)"/></g><g id="Plant-2" data-name="Plant"><path id="Path-5" class="cls-5" d="M588.1,360.48c-3-.4-6-.84-8.41-2.69-1.24-1-2.2-2.9-1.07-4a4.45,4.45,0,0,1,2.2-.78c3-.65.9-3.1-.76-3.9-2.92-1.43-6.37-2.41-8.12-5.14a1,1,0,0,1-.21-.57,1,1,0,0,1,.54-.7c1.74-1.12,5.1-.47,6.15-2.51,2.56-5-8.59-11.15-11.25-13.72a3.52,3.52,0,0,1-1.18-1.71c-.29-1.34,1.07-2.53,2.42-2.77,2.06-.37,4.18.53,6.23-.12a4.28,4.28,0,0,0,2.62-3.82c.46-4.78-2.48-9.46-2.93-14.17-.37-3.86,1.2-11.55,6.63-10.53,2.48.47,3.62,3.26,4.71,5.54a21.45,21.45,0,0,0,4.05,6.09,6.16,6.16,0,0,0,4.64,1.88c3.33-.31,7.27-3.59,8.11,1.74a40.89,40.89,0,0,1,0,4.95c0,1.65.66,3.47,2.15,4.19,2.71,1.3,9.59-3.23,10,2.09a9.5,9.5,0,0,1-.87,3.89c-2.16,6.09,3.5,5,5.57,9.07a6.37,6.37,0,0,1,.16,4.8c-.82,2.51-2.56,4.68-3.71,7.05a57.31,57.31,0,0,0-4.5,15.3c-.66,3.84-.63,11.13-5.74,12-3.15.52-4.88-4.13-6.26-6.14C596.56,361.88,592.55,361.07,588.1,360.48Z" transform="translate(-121.51 -132.05)"/><g id="Group-2"><path id="Path-6" class="cls-4" d="M608.82,373.56a.77.77,0,0,1-.72-.5l-19.83-54.88a.76.76,0,0,1,1.43-.54v0l19.83,54.87a.78.78,0,0,1-.46,1h0A1.17,1.17,0,0,1,608.82,373.56Z" transform="translate(-121.51 -132.05)"/><path id="Path-7" class="cls-4" d="M595.37,335.4l-.21,0a.75.75,0,0,1-.52-.93h0l3.27-11.55a.77.77,0,0,1,1-.51.75.75,0,0,1,.51.92l-3.27,11.56A.78.78,0,0,1,595.37,335.4Z" transform="translate(-121.51 -132.05)"/><path id="Path-8" class="cls-4" d="M602.77,355.22l-.21,0a.77.77,0,0,1-.53-.94h0l3.27-11.55a.75.75,0,0,1,.93-.53h0a.77.77,0,0,1,.53.94h0l-3.28,11.56A.76.76,0,0,1,602.77,355.22Z" transform="translate(-121.51 -132.05)"/><path id="Path-9" class="cls-4" d="M598.24,346.24a.83.83,0,0,1-.22,0l-11.28-3.42a.76.76,0,1,1,.43-1.46h0l11.28,3.42a.76.76,0,0,1-.22,1.49Z" transform="translate(-121.51 -132.05)"/></g></g><path id="Plant-3" data-name="Plant" class="cls-6" d="M467,335a.62.62,0,0,1,.32.09,1.4,1.4,0,0,1,.55,1c.73,3.45.71,2.6.34,7.14.78-2.83.47-2.34,1.91-4.89a3.53,3.53,0,0,1,1.08-1.31c3.16-1.93.11,6.63-.43,7.61-2,3.64-5.83,4.54-9.56,3.2-3.28-1.18-6.41-3.72-7.58-7.06a.89.89,0,0,1,0-.91.85.85,0,0,1,.62-.18,8.56,8.56,0,0,1,5.34,2.28c1.51,1.27,2.76,2.83,4.19,4.2,1,1,3.23.91,4.62,1.08,2.37.29,3.3-.63,5.35-1.84a2.94,2.94,0,0,1,1.46-.5,1.17,1.17,0,0,1,1.16.84,1.5,1.5,0,0,1-.18.9c-1.68,3.55-6.26,3.07-8.28.24s-3.16-7.21-2.24-10.45C465.87,335.71,466.39,334.93,467,335Z" transform="translate(-121.51 -132.05)"/><path id="Plant-4" data-name="Plant" class="cls-6" d="M169.26,361.69a.66.66,0,0,1,.29.17,1.7,1.7,0,0,1,.24,1.24c-.31,4.09-.08,3.13-1.76,8.16,1.58-3,1.14-2.52,3.28-5a4.06,4.06,0,0,1,1.43-1.21c3.62-1.38-1.85,7.51-2.65,8.49-3,3.61-7,3.66-10.19,1.2a13.4,13.4,0,0,1-5.26-9.88,1.17,1.17,0,0,1,.3-1,.78.78,0,0,1,.65-.05,8,8,0,0,1,4.5,3.92c1.09,1.82,1.85,3.88,2.82,5.79.69,1.35,2.86,1.85,4.16,2.39,2.21.92,3.38.12,5.72-.73a2.66,2.66,0,0,1,1.55-.2,1.22,1.22,0,0,1,.89,1.25,2.06,2.06,0,0,1-.44,1c-2.67,3.59-7,1.9-8.09-1.81-1.06-3.54-.94-8.94.9-12.37C168,362.27,168.7,361.53,169.26,361.69Z" transform="translate(-121.51 -132.05)"/><path id="Plant-5" data-name="Plant" class="cls-5" d="M374.71,307.2c.33-3.35.32-6.47,1.42-9.74a4.45,4.45,0,0,1,1.95-2.79.77.77,0,0,1,.63-.07.8.8,0,0,1,.37.42c5.71,10.93-9.6,17.08-16.59,8.86a3.35,3.35,0,0,1-.9-1.75,2.48,2.48,0,0,1,2.27-2.42,5.11,5.11,0,0,1,3.41,1.11c2.66,1.84,4.43,4.68,6.12,7.43A20.66,20.66,0,0,1,370,296.17c0-.64.23-1.46.87-1.51a1.29,1.29,0,0,1,.83.34,8.86,8.86,0,0,1,3.08,5.64A24.84,24.84,0,0,1,374.71,307.2Z" transform="translate(-121.51 -132.05)"/><path id="Plant-6" data-name="Plant" class="cls-5" d="M563.67,378.36c2.86-2.95,5.22-5.94,8.74-8.19,1.19-.76,2.58-1.46,3.94-1.11a1,1,0,0,1,.64.44,1.08,1.08,0,0,1,0,.71c-3,15.06-21.94,8.63-22.17-4.86a4.24,4.24,0,0,1,.5-2.4,2.87,2.87,0,0,1,3.95-.49,6.52,6.52,0,0,1,2.32,3.8c1.07,3.9.55,8,0,12a26.22,26.22,0,0,1,6-14.33c.51-.59,1.33-1.2,2-.74a1.64,1.64,0,0,1,.51,1,11.45,11.45,0,0,1-1.44,7.89A30.06,30.06,0,0,1,563.67,378.36Z" transform="translate(-121.51 -132.05)"/><g id="Plant-7" data-name="Plant"><path id="Path-10" class="cls-7" d="M172.07,295.41c.24-3.76,1.24-8.24,4.8-9.47,5.21-1.82,9,4.78,12.94,8.62a5.63,5.63,0,0,0,3.27,1.78,5.07,5.07,0,0,0,3.47-1.26c3.47-2.74,4.56-7.5,5-11.9s.44-9,2.57-12.9,7.31-6.53,11.06-4.19c8.43,5.24,11.25-7.23,16.4-11.31,2.16-1.72,5.17-2.65,7.75-1.64s4.08,3.54,5,6.1c2.05,5.82,1.73,13.41-1.69,18.71-3.22,5-10.37,7-11.27,13.63-.62,4.58,2.62,9.2,1.39,13.65-1,3.72-4.85,6-6.3,9.61-1.94,4.82.87,10.67-1.37,15.35-1.46,3-4.75,4.87-6.29,7.88-1.89,3.7-.67,8.16-.91,12.31-.49,8.9-8.65,17.14-17.87,16.34-7.88-.68-11.55-9.72-15.07-16A100.57,100.57,0,0,1,172.07,295.41Z" transform="translate(-121.51 -132.05)"/><path id="Path-11" class="cls-4" d="M201.38,344.25a.76.76,0,0,1-.76-.76.63.63,0,0,1,0-.19l11.81-45.44a.77.77,0,0,1,1.48.39l-11.82,45.43A.76.76,0,0,1,201.38,344.25Z" transform="translate(-121.51 -132.05)"/><path id="Path-12" class="cls-4" d="M208.29,317.68a.76.76,0,0,1-.61-.29l-9.59-12.51a.76.76,0,1,1,1.22-.92l9.59,12.5a.77.77,0,0,1-.15,1.07A.75.75,0,0,1,208.29,317.68Z" transform="translate(-121.51 -132.05)"/><path id="Path-13" class="cls-2" d="M192.67,370.19c-3.6-1.52-6.94-4.91-10.33-7.67-7.38-6-7.64-13.84-42.33-19.62-16.13-2.68-4.23-20-13.16-33.76-2.82-4.34-5.54-9.14-5.33-14.31s4.62-10.48,9.74-9.74c3.08.45,5.46,2.82,8.07,4.49s6.42,2.58,8.59.36c-1.65-3.48-4.43-6.26-6.61-9.43s-3.8-7.15-2.66-10.82c1.76-5.68,6.9-2.13,9.07-4.46,2.92-3.12,2.16-11.44,4.31-15.74,5.05-10.08,22.73-14,29.33-3.07,7.64,12.62,2.73,30-1,44.3-5.15,19.95,14.76,26.65,21.27,40.42,4.69,9.92,11.61,27.9,1.45,36.89C199.29,371.41,195.88,371.54,192.67,370.19Z" transform="translate(-121.51 -132.05)"/><path id="Path-14" class="cls-4" d="M200.84,374.52a.75.75,0,0,1-.67-.42l-33.74-64.56a.76.76,0,0,1,.32-1,.75.75,0,0,1,1,.32l33.74,64.56a.76.76,0,0,1-.32,1A.65.65,0,0,1,200.84,374.52Z" transform="translate(-121.51 -132.05)"/><path id="Path-15" class="cls-4" d="M184,344a.77.77,0,0,1-.39-.11l-24.67-15a.77.77,0,0,1-.25-1.05.76.76,0,0,1,1-.25l24.67,15a.75.75,0,0,1,.26,1,.77.77,0,0,1-.66.37Z" transform="translate(-121.51 -132.05)"/><path id="Path-16" class="cls-4" d="M174.7,324.77a.8.8,0,0,1-.4-.11l-24.66-15a.75.75,0,0,1-.26-1,.77.77,0,0,1,1.05-.26l24.66,15a.77.77,0,0,1,.26,1.05.78.78,0,0,1-.65.36Z" transform="translate(-121.51 -132.05)"/><path id="Path-17" class="cls-4" d="M191,357.38l-.15,0a.76.76,0,0,1-.6-.89h0L195,333.08a.76.76,0,0,1,1.49.3l-4.76,23.39A.76.76,0,0,1,191,357.38Z" transform="translate(-121.51 -132.05)"/></g><path id="Plant-8" data-name="Plant" class="cls-7" d="M673.43,354.91a22.59,22.59,0,0,0,3.71-9.63,4.31,4.31,0,0,0-.29-2.54,2.31,2.31,0,0,0-1.49-1.06c-4-1.13-7.76,2.74-10.65,6.57a134.7,134.7,0,0,0-13.58,22.3c2.34-4.81,3.57-14,3-19.69a1.09,1.09,0,0,0-.18-.61.48.48,0,0,0-.5-.09c-1.23.31-2,1.89-2.6,3.35a89.72,89.72,0,0,0-4.48,14.85c.67-3.19-1.3-7-3.09-8.94-3.2-3.4-2.52,1.35-1.82,4.14s5.2,13.43,8.42,11c.59-.44.74-2.83,1.22-3.6a6,6,0,0,1,3.23-2.27c3.25-1.33,6.64-1.88,9.69-4A34,34,0,0,0,673.43,354.91Z" transform="translate(-121.51 -132.05)"/><path id="Plant-9" data-name="Plant" class="cls-2" d="M260.18,339a.63.63,0,0,1,.33,0,1.36,1.36,0,0,1,.69.88c1.27,3.29,1.12,2.46,1.47,7,.32-2.92.09-2.38,1.12-5.13a3.39,3.39,0,0,1,.86-1.46c2.81-2.4,1.14,6.53.77,7.58-1.38,3.91-5,5.4-8.94,4.67a12.48,12.48,0,0,1-8.6-5.79c-.15-.28-.29-.64-.1-.9a.86.86,0,0,1,.58-.27A8.59,8.59,0,0,1,254,347c1.69,1,3.17,2.35,4.79,3.48,1.15.8,3.34.4,4.74.34,2.38-.08,3.16-1.14,5-2.65a2.85,2.85,0,0,1,1.36-.72,1.17,1.17,0,0,1,1.28.64,1.49,1.49,0,0,1,0,.91c-1.11,3.77-5.71,4-8.14,1.54s-4.27-6.61-3.86-10C259.21,340,259.6,339.1,260.18,339Z" transform="translate(-121.51 -132.05)"/></g></g></svg>