<svg id="Layer_1" data-name="Layer 1" xmlns="http://www.w3.org/2000/svg" viewBox="0 0 490.92 332.77"><defs><style>.cls-1{fill:#e4e4f3;}.cls-2{fill:#fff;}.cls-3{fill:#aaabd6;}.cls-4{fill:#fdc615;}.cls-5{fill:#f0504f;}.cls-6{fill:#4d3c97;}.cls-7{fill:#8d89c2;}.cls-8{fill:#d4a79b;}.cls-9{fill:#e9c2ab;}.cls-10{fill:#5960ab;}</style></defs><g id="_8_Work_and_life_balance" data-name=" 8 Work and life balance"><g id="Nature"><g id="Plant"><path id="Path" class="cls-1" d="M526.76,435.39a11.6,11.6,0,0,1-1.58-5.77c.19-3.64,3.1-6.33,5.61-8.86s5-6,4-9.5-4.6-5.09-7.67-6.73-6.38-4.54-5.75-8c.9-4.92,8.84-5.58,9.64-10.52.29-1.78-.52-3.58-1.3-5.23q-4-8.47-8-16.95c-1.23-2.59-2.34-6-.38-8,1.33-1.32,3.44-1.26,5.19-1.9,4.53-1.64,5.83-7.38,6.81-12.22s3.35-10.51,8.19-10.81a9.4,9.4,0,0,1,5.32,1.67,21.69,21.69,0,0,1,10,19.29c-.2,3.24-1.06,6.84.85,9.5,1,1.38,2.54,2.18,3.92,3.15a18.19,18.19,0,0,1,7.33,17c-.62,4.35-2.83,8.95-.78,12.88,2.29,4.39,8.72,5.22,10.9,9.67,1.8,3.67-.13,8-2.38,11.24s-5,6.68-4.84,10.74c.08,2.09.94,4.1,1.2,6.19.64,5.33-2.8,10.21-6.8,13.54-5.18,4.3-13.06,8.84-20,6.4A36.14,36.14,0,0,1,526.76,435.39Z" transform="translate(-122.64 -170.05)"/><g id="Group"><path id="Path-2" class="cls-2" d="M552.65,427.45a.5.5,0,0,1-.5-.44l-9.78-74.6a.51.51,0,0,1,.44-.57.51.51,0,0,1,.57.42v0l9.78,74.59a.51.51,0,0,1-.44.57Z" transform="translate(-122.64 -170.05)"/><path id="Path-3" class="cls-2" d="M546.71,378.38a.46.46,0,0,1-.2-.05.5.5,0,0,1-.26-.66h0l7.48-17.13a.51.51,0,1,1,.93.4l-7.48,17.14A.5.5,0,0,1,546.71,378.38Z" transform="translate(-122.64 -170.05)"/><path id="Path-4" class="cls-2" d="M549.89,406.38a.51.51,0,0,1-.37-.15L538.7,395a.51.51,0,0,1,0-.72.5.5,0,0,1,.72,0l10.82,11.19a.51.51,0,0,1,0,.72A.5.5,0,0,1,549.89,406.38Z" transform="translate(-122.64 -170.05)"/></g></g><ellipse id="Ground" class="cls-1" cx="282.86" cy="286.73" rx="186.85" ry="11.6"/><g id="Plant-2" data-name="Plant"><path id="Path-5" class="cls-3" d="M134.24,458.3c-3.57-1.21-7.06-3.09-9.33-6.1s-3.08-7.32-1.28-10.63,5.72-4.92,9-6.94,6.36-5.67,5.15-9.3-5.49-4.61-8.39-6.9c-2.46-1.94-4-5.21-3.31-8.25s4.17-5.36,7.12-4.3c1.74.62,3.15,2.26,5,2.27,3.18,0,4.24-4.47,3.14-7.44s-3.32-5.78-2.95-8.93c.43-3.62,4.43-6,8.06-5.71s6.77,2.71,9.13,5.48c5.1,6,7.38,13.78,9.86,21.24.45,1.37,1,2.86,2.3,3.51s2.87.22,4.27-.23l13.29-4.34c-1.05.34,18.44,21.53,19.22,23.89,2.66,8.13.36,17.32-7.29,21.48s-17.89,3.23-26.12,3.31C159.05,460.51,145.84,462.22,134.24,458.3Z" transform="translate(-122.64 -170.05)"/><path id="Path-6" class="cls-1" d="M176.78,431.66c-1.44-4-2.34-8.61-.38-12.39,2.66-5.16,15.34-10.64,9.14-18-3-3.57-9.64-3.73-10.87-8.23s4.34-8.34,6-12.12a22.55,22.55,0,0,0,.9-14.19c-2.32-10.27-9.92-18.63-15.07-27.53-1-1.7-1.94-3.64-1.53-5.57.48-2.21,2.69-3.7,4.93-4.06,3.89-.61,10.88,1,13.31,4.41s1.75,8.74,5.06,11.33,8.13.74,12,2.17c9.78,3.62,4.32,22,13.72,26.47,1.51.72,3.22.94,4.74,1.63,3.55,1.62,5.46,5.44,7.1,9,1.9,4.12,3.85,8.52,3.24,13-1.15,8.5-11.11,15.33-8.64,23.55.74,2.44,2.57,4.73,2.09,7.23-.89,4.68-8.36,4.82-10.41,9.11-2.21,4.66,2.76,9.56.18,14.32-2.06,3.83-9.24,6.05-13.32,5.4C188.56,455.53,180,440.49,176.78,431.66Z" transform="translate(-122.64 -170.05)"/><g id="Group-2"><path id="Path-7" class="cls-2" d="M205,458a.51.51,0,0,1-.5-.44L192.8,376.62a.5.5,0,1,1,1-.14l11.72,80.89a.5.5,0,0,1-.42.57H205Z" transform="translate(-122.64 -170.05)"/><path id="Path-8" class="cls-2" d="M197.81,404.75l-.18,0a.51.51,0,0,1-.29-.66l7.14-18.27a.51.51,0,0,1,.94.37l-7.13,18.27A.53.53,0,0,1,197.81,404.75Z" transform="translate(-122.64 -170.05)"/><path id="Path-9" class="cls-2" d="M201.71,435.11a.56.56,0,0,1-.37-.17L190.13,422.5a.51.51,0,0,1,.75-.68l11.21,12.44a.51.51,0,0,1,0,.72A.63.63,0,0,1,201.71,435.11Z" transform="translate(-122.64 -170.05)"/></g><g id="Group-3"><path id="Path-10" class="cls-2" d="M167.41,502.81a.51.51,0,0,1-.51-.43l-11.72-80.89a.51.51,0,0,1,.43-.58h0a.52.52,0,0,1,.58.43l11.72,80.89a.51.51,0,0,1-.43.58h-.07Z" transform="translate(-122.64 -170.05)"/><path id="Path-11" class="cls-2" d="M160.2,449.62a.41.41,0,0,1-.19,0,.51.51,0,0,1-.29-.66l7.14-18.26a.51.51,0,0,1,.95.36l-7.14,18.27A.5.5,0,0,1,160.2,449.62Z" transform="translate(-122.64 -170.05)"/><path id="Path-12" class="cls-2" d="M164.1,480a.52.52,0,0,1-.38-.17l-11.21-12.44a.51.51,0,1,1,.75-.68l11.21,12.44a.49.49,0,0,1,0,.71h0A.53.53,0,0,1,164.1,480Z" transform="translate(-122.64 -170.05)"/></g></g><path id="Plant-3" data-name="Plant" class="cls-4" d="M489.27,452.17c.29-3,.29-5.76,1.27-8.68a4,4,0,0,1,1.73-2.48.69.69,0,0,1,.56-.07.78.78,0,0,1,.34.38c5.08,9.74-8.56,15.21-14.78,7.89a2.93,2.93,0,0,1-.8-1.56,2.19,2.19,0,0,1,2-2.15,4.57,4.57,0,0,1,3,1c2.36,1.64,3.94,4.17,5.44,6.62a18.52,18.52,0,0,1-3-10.76c0-.57.21-1.3.78-1.35a1.19,1.19,0,0,1,.74.3,7.89,7.89,0,0,1,2.74,5A22,22,0,0,1,489.27,452.17Z" transform="translate(-122.64 -170.05)"/><path id="Plant-4" data-name="Plant" class="cls-4" d="M291.78,432a.87.87,0,0,1,.41.11,1.76,1.76,0,0,1,.71,1.28c1,4.49.93,3.39.46,9.29,1-3.68.61-3,2.49-6.36a4.37,4.37,0,0,1,1.4-1.7c4.11-2.52.13,8.63-.56,9.9-2.58,4.75-7.59,5.92-12.46,4.17-4.26-1.53-8.34-4.85-9.87-9.2a1.18,1.18,0,0,1,.06-1.18,1.15,1.15,0,0,1,.8-.23,11.23,11.23,0,0,1,7,3c2,1.66,3.6,3.68,5.45,5.47,1.31,1.27,4.21,1.2,6,1.41,3.08.38,4.3-.82,7-2.39a3.7,3.7,0,0,1,1.9-.65,1.54,1.54,0,0,1,1.52,1.1,2,2,0,0,1-.24,1.16c-2.19,4.63-8.15,4-10.79.31-2.5-3.52-4.12-9.38-2.92-13.6C290.34,433,291,432,291.78,432Z" transform="translate(-122.64 -170.05)"/><path id="Plant-5" data-name="Plant" class="cls-3" d="M605,440.57a.6.6,0,0,1,.29.08,1.25,1.25,0,0,1,.49.89c.67,3.14.65,2.37.32,6.49a11.71,11.71,0,0,1,1.73-4.45,3.06,3.06,0,0,1,1-1.18c2.86-1.76.09,6-.4,6.91-1.8,3.31-5.3,4.13-8.69,2.91a11.28,11.28,0,0,1-6.88-6.42.61.61,0,0,1,.6-1,7.76,7.76,0,0,1,4.85,2.07c1.37,1.16,2.51,2.57,3.81,3.82.92.88,2.94.83,4.2,1,2.15.26,3-.57,4.87-1.67a2.61,2.61,0,0,1,1.32-.45,1.07,1.07,0,0,1,1.06.76,1.33,1.33,0,0,1-.16.81c-1.53,3.23-5.7,2.8-7.53.22s-2.88-6.55-2-9.5C604,441.26,604.47,440.56,605,440.57Z" transform="translate(-122.64 -170.05)"/><g id="Plant-6" data-name="Plant"><g id="Group-4"><path id="Path-13" class="cls-4" d="M548.61,429.42c-2.15-2.39-4.25-4.78-4.9-7.91-.34-1.62.22-3.83,1.87-3.92a4.71,4.71,0,0,1,2.29.88c2.83,1.5,2.84-1.87,2.07-3.65-1.37-3.15-3.46-6.29-3-9.68a.82.82,0,0,1,1.13-.8c2.18.29,4.42,3.12,6.66,2.19,5.47-2.25.73-14.82.36-18.7a3.75,3.75,0,0,1,.23-2.18c.69-1.27,2.59-1.29,3.84-.57,1.91,1.12,3,3.29,5.08,4.18A4.52,4.52,0,0,0,569,388c3.64-3.52,4.48-9.28,7.35-13.37,2.35-3.35,8.87-8.44,12.52-3.91,1.67,2.08.67,5.1,0,7.67a22.63,22.63,0,0,0-.92,7.66,6.44,6.44,0,0,0,2.43,4.68c2.88,2,8.29,2.11,5.31,7-.91,1.48-2.32,2.58-3.41,3.94s-1.85,3.24-1.15,4.83c1.29,2.91,9.9,4,6.6,8.54a10.1,10.1,0,0,1-3.35,2.52c-5.9,3.41-.61,6.4-1.75,11.09a6.75,6.75,0,0,1-3.16,4c-2.38,1.46-5.26,2-7.8,3.12a60.27,60.27,0,0,0-14.09,9.19c-3.16,2.63-8.12,8.49-12.79,5.66-2.87-1.75-1.08-6.66-.81-9.21C554.44,436.34,551.77,432.94,548.61,429.42Z" transform="translate(-122.64 -170.05)"/><g id="Group-5"><path id="Path-14" class="cls-2" d="M556.8,454.17a.93.93,0,0,1-.24,0,.68.68,0,0,1-.4-.87h0l21.66-57.59a.68.68,0,0,1,1.27.48l-21.66,57.59A.67.67,0,0,1,556.8,454.17Z" transform="translate(-122.64 -170.05)"/><path id="Path-15" class="cls-2" d="M572.13,414.35a.68.68,0,0,1-.68-.67.69.69,0,0,1,.31-.57l10.54-7a.68.68,0,0,1,.94.18.69.69,0,0,1-.18.95h0l-10.54,7A.63.63,0,0,1,572.13,414.35Z" transform="translate(-122.64 -170.05)"/><path id="Path-16" class="cls-2" d="M564.5,435.32a.68.68,0,0,1-.38-1.25l10.54-7a.67.67,0,0,1,.94.17.69.69,0,0,1-.17.95h0l-10.54,7A.63.63,0,0,1,564.5,435.32Z" transform="translate(-122.64 -170.05)"/><path id="Path-17" class="cls-2" d="M567,425a.7.7,0,0,1-.58-.32l-6.7-10.46a.69.69,0,0,1,.17-.95.67.67,0,0,1,.94.17l0,.05L567.59,424a.68.68,0,0,1-.21.94A.66.66,0,0,1,567,425Z" transform="translate(-122.64 -170.05)"/></g></g><g id="Group-6"><path id="Path-18" class="cls-5" d="M532.94,451.31c-9.09,1-17.89,0-21.53-9.38-1.3-3.39-3.22-4.72-6.62-5.68a9.46,9.46,0,0,1-4.56-2.26c-1.18-1.25-1.5-3.47-.23-4.62,1-.92,2.56-.83,3.93-.69l6.79.71a1.72,1.72,0,0,0,.95-.08c1-.46.36-1.92-.36-2.72q-4-4.47-8.22-8.72a9.07,9.07,0,0,1-2.56-3.56c-.42-1.41.08-3.23,1.46-3.75,1.93-.71,4.18,1.37,6,.42,1.3-.69,1.46-2.5,1.12-3.93s-1-2.85-.75-4.29a3.45,3.45,0,0,1,6.37-1.15c.78,1.33.73,3.22,2,4.07,1.08.71,2.55.26,3.62-.46a14.78,14.78,0,0,1,3.24-2.11,4.13,4.13,0,0,1,5.13,2.79c.53,2.12-.69,4.56.41,6.45s3.48,2,5.48,1.6,4-1.24,6-.84a2.21,2.21,0,0,1,1.68,1.11,2.5,2.5,0,0,1-.39,2.18c-1.14,2-2.87,3.62-3.95,5.66s-1.34,4.82.32,6.41a11,11,0,0,0,3.21,1.66,3.61,3.61,0,0,1,2.38,2.53c.26,2-2.17,3.2-3.42,4.82-1.63,2.09-1.22,5-1.29,7.7-.17,7.56-7.57,7.4-13.19,6" transform="translate(-122.64 -170.05)"/><g id="Group-7"><path id="Path-19" class="cls-2" d="M534.21,452.84a.67.67,0,0,1-.63-.44L521,419.06a.69.69,0,0,1,.4-.88.68.68,0,0,1,.87.4l12.54,33.35a.68.68,0,0,1-.38.87h0A.67.67,0,0,1,534.21,452.84Z" transform="translate(-122.64 -170.05)"/><path id="Path-20" class="cls-2" d="M525.33,429.79a.68.68,0,0,1-.38-.12l-6.1-4.06a.68.68,0,0,1,.75-1.13l6.11,4.06a.68.68,0,0,1-.38,1.25Z" transform="translate(-122.64 -170.05)"/><path id="Path-21" class="cls-2" d="M529.75,441.92a.7.7,0,0,1-.37-.11l-6.11-4.07a.68.68,0,0,1-.18-.94.68.68,0,0,1,.93-.19l6.11,4.07a.68.68,0,0,1-.38,1.24Z" transform="translate(-122.64 -170.05)"/><path id="Path-22" class="cls-2" d="M528.29,436a.68.68,0,0,1-.57-1l3.88-6.05a.68.68,0,1,1,1.14.73h0l-3.88,6.05A.67.67,0,0,1,528.29,436Z" transform="translate(-122.64 -170.05)"/></g></g></g><path id="Cloud" class="cls-1" d="M349.8,204.41c27.53.79,55.26,1.56,82.42-3,4.46-.74,9.79-2.47,10.67-6.9,1.09-5.48-5.88-9.24-11.44-8.79s-11.05,3.09-16.52,2c-4.17-.81-7.61-3.64-10.93-6.29-5.15-4.1-10.78-8.12-17.3-9s-14.08,2.45-15.78,8.82c-7.09-1.46-13.42-5.28-20.1-8.08s-14.38-4.56-21.05-1.76-11,11.72-6.85,17.65c-3.78-5.43-28.68,7-32.42,9.59-5.83,4-9.07,5.88-2.06,7.48,6.81,1.56,16.72-2.13,23.7-2.52C324.61,203,337.32,204.06,349.8,204.41Z" transform="translate(-122.64 -170.05)"/><path id="Cloud-2" data-name="Cloud" class="cls-1" d="M550.65,283.51c2.12.09,4.93-.38,5.18-2.48.17-1.49-1.18-2.67-2.42-3.51-2.46-1.66-5.42-3.21-8.27-2.38-1.09.32-2.07,1-3.17,1.26-6.41,1.69-11.34-9-17.67-7a20.53,20.53,0,0,0-2.9,1.43,15.11,15.11,0,0,1-3.9,1.16,33.62,33.62,0,0,1-13.33-.28,23.18,23.18,0,0,0-6-1c-5.29.2-14.87,5.16-9.29,10.68,4,3.94,9.07,2.44,13.71,1.39C517.48,279.37,535.47,282.86,550.65,283.51Z" transform="translate(-122.64 -170.05)"/><path id="Cloud-3" data-name="Cloud" class="cls-1" d="M207.17,288.89c-3.8-.05-9-1.63-8.39-5.39.52-3.18,4.95-3.8,8-2.81s6.29,2.82,9.31,1.68c1.21-.46,2.25-1.36,3.53-1.57s2.7.37,4,.08c1.91-.44,3-2.56,4.91-3.13,3.12-.95,6.61,2.81,9.44,1.18,1.78-1,2-3.44,2.36-5.44,1.57-7.67,10.44-12.95,17.93-10.67,9.77,3,14.84,15.79,25,16.77,4.22.41,21.62-2.91,18.44,7.32-2,6.31-22.31,2.92-27.52,2.85Z" transform="translate(-122.64 -170.05)"/><path id="Cloud-4" data-name="Cloud" class="cls-1" d="M525.08,243.64c1.82-.29,4.2-1.43,3.65-3.18a2.83,2.83,0,0,0-1.08-1.31c-6.58-4.8-15.9,1.86-23.83,0-2.39-.56-4.53-1.88-6.88-2.55-1.37-.39-2.79-.56-4.11-1.08-4.4-1.72-6.62-6.76-10.72-9.11-5.22-3-12.85,0-14.71,5.67-1,3.12-.78,7.13-3.56,8.88-3.41,2.13-9.37-1-10.58,4.07,9.79,4.1,19.49.24,29.51.45C497,245.78,510.92,245.85,525.08,243.64Z" transform="translate(-122.64 -170.05)"/><path id="Cloud-5" data-name="Cloud" class="cls-1" d="M386.25,254.67c1.44-.22,3.32-1.13,2.89-2.52a2.16,2.16,0,0,0-.86-1c-5.2-3.81-12.59,1.47-18.87,0-1.89-.44-3.59-1.49-5.45-2-1.08-.31-2.21-.45-3.25-.86-3.49-1.36-5.25-5.35-8.5-7.21a8.4,8.4,0,0,0-11.64,4.49c-.8,2.47-.63,5.65-2.83,7-2.7,1.69-7.41-.76-8.37,3.22,7.75,3.25,15.43.2,23.37.36C364,256.37,375,256.42,386.25,254.67Z" transform="translate(-122.64 -170.05)"/><path id="Cloud-6" data-name="Cloud" class="cls-1" d="M257,318.67c.76-.12,1.76-.6,1.53-1.34a1.19,1.19,0,0,0-.45-.54c-2.76-2-6.66.77-10,0-1-.24-1.89-.79-2.88-1.07a17.4,17.4,0,0,1-1.72-.45c-1.84-.72-2.77-2.83-4.49-3.82a4.45,4.45,0,0,0-6.16,2.38c-.42,1.3-.32,3-1.49,3.72-1.43.89-3.92-.4-4.43,1.7,4.1,1.72,8.16.11,12.36.19A100,100,0,0,0,257,318.67Z" transform="translate(-122.64 -170.05)"/><path id="Cloud-7" data-name="Cloud" class="cls-1" d="M193.31,235.71c-1.44-.22-3.33-1.13-2.89-2.52a2.12,2.12,0,0,1,.86-1c5.2-3.81,12.59,1.47,18.87,0,1.89-.44,3.59-1.48,5.45-2a32.3,32.3,0,0,0,3.25-.85c3.49-1.36,5.25-5.35,8.5-7.22a8.4,8.4,0,0,1,11.64,4.5c.8,2.47.63,5.65,2.83,7,2.7,1.69,7.41-.76,8.37,3.22-7.75,3.25-15.43.19-23.37.36C215.52,237.41,204.53,237.46,193.31,235.71Z" transform="translate(-122.64 -170.05)"/><g id="Plant-7" data-name="Plant"><path id="Path-23" class="cls-3" d="M269.33,439.81a3.53,3.53,0,0,0,.72-.91c1.7-3.17-2.22-7.29-3.15-10.08-1.39-4.13-.8-9.29.29-13.43.87-3.32,3.15-5.77,4.3-8.95,1.78-5-3.44-12.12-7.41-14.68-8.9-5.73-6.28,8.55-10,10.93-1.16.73-2.65.59-4,.81-4.91.83-1.54,5.93-3,8.9a12,12,0,0,1-2.46,2.63c-4.07,4.22,5.44,6.31-3.17,10.09-2.21,1-4.55,2.9-3.17,4.42a8.34,8.34,0,0,0,1.73,1.13c2.64,1.67,2.45,4.65,2.06,7.21-.43,2.76,1.85,4.76,3,7,1.28,2.54.47,6,4.47,6.16,2.73.07,4.89-1.91,7.07-3.26a36.75,36.75,0,0,0,6.87-4.92C264.93,441.39,267.75,441.21,269.33,439.81Z" transform="translate(-122.64 -170.05)"/><g id="Group-8"><path id="Path-24" class="cls-2" d="M249,453.56l-.13,0a.51.51,0,0,1-.36-.62h0l11.54-42.87a.52.52,0,0,1,.63-.36.49.49,0,0,1,.35.62l-11.54,42.87A.51.51,0,0,1,249,453.56Z" transform="translate(-122.64 -170.05)"/><path id="Path-25" class="cls-2" d="M256.83,423.78a.52.52,0,0,1-.49-.37l-2.23-8.18a.51.51,0,0,1,1-.27l2.23,8.18a.49.49,0,0,1-.35.62A.32.32,0,0,1,256.83,423.78Z" transform="translate(-122.64 -170.05)"/><path id="Path-26" class="cls-2" d="M252.52,439.3a.53.53,0,0,1-.5-.38l-2.23-8.17a.51.51,0,0,1,1-.27l2.23,8.17a.52.52,0,0,1-.36.63Z" transform="translate(-122.64 -170.05)"/><path id="Path-27" class="cls-2" d="M255.21,432.13a.51.51,0,0,1-.51-.51.51.51,0,0,1,.26-.45l7-3.82a.51.51,0,0,1,.69.2.5.5,0,0,1-.2.69h0l-7,3.83A.5.5,0,0,1,255.21,432.13Z" transform="translate(-122.64 -170.05)"/></g></g><g id="Bird"><path id="Path-28" class="cls-6" d="M325.79,325.6l4-.84L327,328Z" transform="translate(-122.64 -170.05)"/><path id="Path-29" class="cls-3" d="M310.63,336.47a33.53,33.53,0,0,1-3.63,4.14c-1.37,1.18-3.94,1.42-5,2.7,3.21,3.5,11.13,1,14.6-.8a20.54,20.54,0,0,0,10-11.56c.87-2.66,1-6-1.09-7.84a8.2,8.2,0,0,0-3.72-1.57c-2.07-.46-4.63-1-6.68-.13-3.13,1.27.28,1.08,1,2.52.82,1.69-.89,4.93-1.63,6.37A33.36,33.36,0,0,1,310.63,336.47Z" transform="translate(-122.64 -170.05)"/><circle id="Oval" class="cls-6" cx="200.24" cy="154.72" r="0.84"/><path id="Path-30" class="cls-7" d="M308.88,326.13c-2.15-.78-4.56-1.21-6.2-2.82-.89-.89-1.64-2.17-2.9-2.28a.7.7,0,0,0-.54.14.83.83,0,0,0-.16.68,12,12,0,0,0,.72,4.22,4.07,4.07,0,0,0,3.17,2.59,1.3,1.3,0,0,1,.51.11c.43.26.19,1-.2,1.29s-.91.58-1,1.07a1.1,1.1,0,0,0,.86,1.18,3.14,3.14,0,0,0,1.58-.11c-.19.91-.23,2.13.63,2.49s1.77-.3,2.35.27a2.1,2.1,0,0,1,.41.8,2.83,2.83,0,0,0,2.34,1.54,5.76,5.76,0,0,0,2.85-.59c2.3-1,4.83-3.3,3-5.67A17.25,17.25,0,0,0,308.88,326.13Z" transform="translate(-122.64 -170.05)"/></g><g id="Bird-2" data-name="Bird"><path id="Path-31" class="cls-6" d="M439.42,302.8l-3-.62,2.11,2.43Z" transform="translate(-122.64 -170.05)"/><path id="Path-32" class="cls-3" d="M450.66,310.87a25.92,25.92,0,0,0,2.7,3.07c1,.88,2.92,1.06,3.7,2-2.38,2.61-8.26.76-10.83-.59a15.25,15.25,0,0,1-7.43-8.58c-.65-2-.75-4.45.81-5.82a6,6,0,0,1,2.75-1.16c1.55-.34,3.44-.71,5-.1,2.32.95-.21.8-.73,1.87-.62,1.26.65,3.66,1.21,4.73A25.21,25.21,0,0,0,450.66,310.87Z" transform="translate(-122.64 -170.05)"/><circle id="Oval-2" class="cls-6" cx="318.93" cy="132.14" r="0.62"/><path id="Path-33" class="cls-7" d="M452,303.2c1.6-.58,3.39-.9,4.6-2.09.67-.66,1.22-1.61,2.16-1.69a.49.49,0,0,1,.4.1.63.63,0,0,1,.12.5,9.2,9.2,0,0,1-.54,3.13,3,3,0,0,1-2.35,1.93.73.73,0,0,0-.38.08c-.32.19-.15.71.14.95s.68.43.76.8a.81.81,0,0,1-.63.87,2.25,2.25,0,0,1-1.18-.08c.14.68.18,1.58-.46,1.85s-1.32-.22-1.75.2a1.85,1.85,0,0,0-.31.59,2.06,2.06,0,0,1-1.73,1.14,4.26,4.26,0,0,1-2.11-.43c-1.71-.76-3.59-2.45-2.22-4.21A12.81,12.81,0,0,1,452,303.2Z" transform="translate(-122.64 -170.05)"/></g><g id="Bird-3" data-name="Bird"><path id="Path-34" class="cls-6" d="M463.93,344.66l-4.49.76,4.27,2.24Z" transform="translate(-122.64 -170.05)"/><path id="Path-35" class="cls-3" d="M484,349.76a37.23,37.23,0,0,0,5.44,2.82c1.9.67,4.66-.13,6.26.77-1.9,4.93-11.12,5.56-15.44,5.09a22.87,22.87,0,0,1-15.06-7.91c-2-2.4-3.48-5.8-2.05-8.56a9.17,9.17,0,0,1,3.21-3.13c2-1.32,4.41-2.87,6.88-2.84,3.75,0,.14,1.23,0,3-.17,2.09,2.92,4.74,4.27,5.94A37.67,37.67,0,0,0,484,349.76Z" transform="translate(-122.64 -170.05)"/><circle id="Oval-3" class="cls-6" cx="343.96" cy="172.57" r="0.93"/><path id="Path-36" class="cls-7" d="M481.65,338.35c1.92-1.68,4.24-3.11,5.28-5.43.56-1.28.82-2.92,2.08-3.54a.73.73,0,0,1,.61-.07,1,1,0,0,1,.45.63,13.42,13.42,0,0,1,1,4.66,4.53,4.53,0,0,1-2.23,4,1.31,1.31,0,0,0-.48.32c-.34.45.19,1.07.72,1.25s1.18.24,1.49.7a1.21,1.21,0,0,1-.41,1.57,3.54,3.54,0,0,1-1.68.53c.57.87,1.11,2.11.36,2.83s-1.95.41-2.33,1.23a2.82,2.82,0,0,0-.1,1,3.18,3.18,0,0,1-1.8,2.55,6.31,6.31,0,0,1-3.18.54c-2.81-.13-6.35-1.46-5.4-4.66A19.28,19.28,0,0,1,481.65,338.35Z" transform="translate(-122.64 -170.05)"/></g></g><g id="Characters"><g id="Woman"><path id="Neck" class="cls-8" d="M388.43,329.1l.44,23.2,17.43,9.18,5.48-10.62,6.42-19.71L414.93,324Z" transform="translate(-122.64 -170.05)"/><g id="Legs"><path id="Skin" class="cls-9" d="M391.59,451.43c-.76-.41-1.36.11-2.87.57a56,56,0,0,1-10.65,2.15c-1.36.15-2.84.28-3.84,1.22S373,457.72,372.6,459c-1.67,5.1-6.57,8.3-10.11,12.34-.32.37-.65.88-.42,1.31a1.14,1.14,0,0,0,.89.47c2.09.31,4.14-.63,6-1.67a45.68,45.68,0,0,0,7.81-5.58,19.78,19.78,0,0,1,5-3.77,21,21,0,0,1,3.11-.93,41.61,41.61,0,0,0,10.07-4c-.77-1.51-1.44-3.72-2.55-5A3.24,3.24,0,0,0,391.59,451.43Z" transform="translate(-122.64 -170.05)"/><path id="Skin-2" data-name="Skin" class="cls-9" d="M401.81,452.52c.76-.41,1.36.11,2.87.58a56,56,0,0,0,10.65,2.15c1.36.14,2.85.28,3.84,1.22s1.21,2.35,1.63,3.62c1.67,5.1,6.57,8.29,10.11,12.33.32.37.65.88.42,1.32a1.17,1.17,0,0,1-.89.47c-2.08.31-4.14-.63-6-1.67a45.68,45.68,0,0,1-7.81-5.58,19.91,19.91,0,0,0-5-3.77,21.47,21.47,0,0,0-3.12-.93,41.61,41.61,0,0,1-10.07-4c.77-1.51,1.45-3.72,2.55-5A3.28,3.28,0,0,1,401.81,452.52Z" transform="translate(-122.64 -170.05)"/><path id="Legs-2" data-name="Legs" class="cls-10" d="M396.11,460.25c13-8,28.7-10.06,43.44-14.1s30.09-11.32,36.62-25.16c1.65-3.49,2.36-8.31-.7-10.68a9,9,0,0,0-4.15-1.5c-15.84-2.68-32,2.28-46.67,8.78a83.46,83.46,0,0,1-10,4c-6.53,1.94-13.46,2-20.27,2-8.09,0-16.19,0-24.28-.11-5.22-.07-10.54-.21-15.5-1.87a97.78,97.78,0,0,1-9.39-4.28,55.29,55.29,0,0,0-23.82-5c-3.31.05-6.73.43-9.63,2.05s-5.15,4.73-4.93,8c.29,4.45,4.59,7.43,8.49,9.57,13.28,7.28,27.38,13,41.66,18a91.35,91.35,0,0,0,20.34,4.25c5.5.32,7.83-1.27,12.81-2.1C394.73,451.39,394,456.68,396.11,460.25Z" transform="translate(-122.64 -170.05)"/><path id="Shadow" class="cls-6" d="M417.21,439.1l32.85-11.5c-7,.23-14.06.48-20.77,2.43-7.16,2.08-13.62,6-20.46,9s-14.58,4.91-21.72,2.79c-2.6-.77-5-2.1-7.53-3-25.68-9.21-32.24-16.22-40.87-9.21,5.87-2.47,38.71,14.18,49,20.76,5.81,3.74,8.41-1.08,13.38-4.14S411.67,441,417.21,439.1Z" transform="translate(-122.64 -170.05)"/></g><path id="Arm" class="cls-9" d="M389.71,351.46s-14,22.73-25.2,42.41a42.49,42.49,0,0,1-10.1,12,39.53,39.53,0,0,1-9.84,5.45c-1.28.55-3.18,1.78-4.57,1.8-1.71,0-2.85-1.31-4.39-1.86a3.84,3.84,0,0,0-2.07-.15c-3.71.77,1.37,4,2.45,3.35a26.49,26.49,0,0,1-5.33,1.92,8,8,0,0,0-4.64,3.21,1.81,1.81,0,0,0,1.34,3.13,57.34,57.34,0,0,0,5.87.48c4.82.15,6.23-2.41,10.09-5.15s11.18-5.87,15.16-8.69c4.19-3,9.08-6.49,11.52-11.36,4.76-9.5,21-39.09,21-39.09Z" transform="translate(-122.64 -170.05)"/><path id="Arm-2" data-name="Arm" class="cls-9" d="M404.42,353.64s14,18.54,27,37.09a42.65,42.65,0,0,0,11.19,11,39.47,39.47,0,0,0,10.3,4.5c1.34.42,3.34,1.47,4.73,1.36,1.7-.14,2.71-1.57,4.19-2.26a3.81,3.81,0,0,1,2.05-.34c3.77.42-1,4.09-2.12,3.56a26.35,26.35,0,0,0,5.49,1.41,8,8,0,0,1,4.91,2.76,1.81,1.81,0,0,1-1,3.24,56.76,56.76,0,0,1-5.8,1c-4.79.6-6.44-1.82-10.53-4.18s-11.68-4.79-15.9-7.23c-4.46-2.56-9.65-5.61-12.54-10.23-5.63-9-24.54-36.95-24.54-36.95Z" transform="translate(-122.64 -170.05)"/><path id="Body" class="cls-5" d="M373.88,425.31c3.91.48,7.74-.76,11.71-1.16s8,.63,11.73,1.45a31.76,31.76,0,0,0,22.8-3.28c4.67-2.49-2.7-9.71-4.18-12.44a27.13,27.13,0,0,1-2.56-8.64,111,111,0,0,1-1.18-26c.47-6.52-1.78-11.19-3.84-17.23-1-3,.49-4.08-1.35-6.54-1.13-1.51-6,3.16-7.79,3-3.45-.29-8-4.71-10.34-2.17a32.49,32.49,0,0,0-4.61,7.15c-3.39,6.41-6.84,13-7.73,20.19-1.18,9.66,1.26,16.68-1.87,26-.83,2.48-1.53,8-6.82,17.82,0,.08,3.23,1.22,3.46,1.3A11.82,11.82,0,0,0,373.88,425.31Z" transform="translate(-122.64 -170.05)"/><g id="Head"><path id="Hair" class="cls-6" d="M401,295.24s2.87,6.38-1.62,10.32-10.6.81-16.53,4.42-5.28,7.87-2.57,17.37c3.24,11.3,6.77,11,10,11.78s4.12,9.67,4.48,13.77c.57,6.49-5.26,8.63-9.72,11.65-3.71,2.51-6.41,5.23-5.06,10,.59,2.1,1.46,4.33.73,6.4a6,6,0,0,1-4.82,3.57c-2.88.47-7.19.62-5.48-3.1,3.75-8.12-3.17-7.32-4.66-13.6-1.61-6.83-4.66-12.46,3.12-16.56,2.32-1.22,4.92-2.38,6.17-4.69,2.48-4.56-1.25-8.85-3.2-12.75-2.85-5.68-3.89-12.32-1.87-18.44,3.42-10.32-.18-7.21,4.31-15.4S395.06,282.78,401,295.24Z" transform="translate(-122.64 -170.05)"/><path id="Face" class="cls-9" d="M384.63,307.12s-7.38,4.68-5.41,16.5,12.7,22.59,16.25,22.13c9.82-1.25,10.94-8.08,14.72-13.71,4.63-6.91-2.3-25.06-2.3-25.06l-7.43-4.71Z" transform="translate(-122.64 -170.05)"/><g id="Hair-2" data-name="Hair"><path id="Path-37" class="cls-6" d="M395.42,302.77s4.88,1.64,9.17,8.52,9,9.86,5.92,18.55c-1.41,4-2.57,7.42-4,10.88A60.45,60.45,0,0,0,402.62,354c-.64,3.86,1.26,5.05,3.68,7.47,4.79,4.78,5,11.41,9.2,16,2.89,3.15,10.29,6.61,14.4,3.89s-7.83-.87-5.49-12.17,3.13-16.11-3.69-19.24-3.57-4,0-10.85-5.67-6.8-2-18.77c4.22-13.83.4-29.23-20.26-25S395.42,302.77,395.42,302.77Z" transform="translate(-122.64 -170.05)"/><path id="Path-38" class="cls-6" d="M390.39,315.93c5.92-3.61,4.49-6.44,9-10.37S401,295.24,401,295.24c-5.93-12.45-22.28-3.45-26.77,4.75s-.89,5.07-4.31,15.4c-2.35,7.11.16,14.21,1.87,18.44l7.36.51C375.23,319.49,385.93,318.63,390.39,315.93Z" transform="translate(-122.64 -170.05)"/></g></g></g></g></g></svg>