<svg id="Layer_1" data-name="Layer 1" xmlns="http://www.w3.org/2000/svg" viewBox="0 0 363.13 323.3"><defs><style>.cls-1,.cls-2{fill:#aaabd6;}.cls-1{isolation:isolate;opacity:0.67;}.cls-3{fill:#e4e4f3;}.cls-4{fill:#fff;}.cls-5{fill:#8d89c2;}.cls-6{fill:#fdc615;}.cls-7{fill:none;}.cls-8{fill:#f0504f;}.cls-9{fill:#e9c2ab;}.cls-10{fill:#4d3c97;}.cls-11{fill:#5960ab;}.cls-12{fill:#d4a79b;}.cls-13{fill:#d7384e;}</style></defs><g id="_10_Growth" data-name=" 10 Growth"><g id="UI"><g id="Growth"><path id="Path" class="cls-1" d="M401.53,445H357.94a15.37,15.37,0,0,1-15.32-15.32v-78a15.37,15.37,0,0,1,15.32-15.32h43.59a15.37,15.37,0,0,1,15.32,15.32v78A15.36,15.36,0,0,1,401.53,445Z" transform="translate(-172.55 -124.58)"/><path id="Path-2" class="cls-2" d="M480.11,445H436.52a15.37,15.37,0,0,1-15.32-15.32V289.88a15.37,15.37,0,0,1,15.32-15.32h43.59a15.36,15.36,0,0,1,15.32,15.32V429.69A15.36,15.36,0,0,1,480.11,445Z" transform="translate(-172.55 -124.58)"/><path id="Path-3" class="cls-3" d="M323.09,445H279.51a15.36,15.36,0,0,1-15.32-15.32V382.31A15.37,15.37,0,0,1,279.51,367h43.58a15.37,15.37,0,0,1,15.32,15.32v47.38A15.35,15.35,0,0,1,323.09,445Z" transform="translate(-172.55 -124.58)"/></g><g id="Chart"><path id="Path-4" class="cls-3" d="M520.36,233.29H440.22A15.37,15.37,0,0,1,424.89,218V200.86a15.37,15.37,0,0,1,15.33-15.32h80.14a15.37,15.37,0,0,1,15.32,15.32V218A15.37,15.37,0,0,1,520.36,233.29Z" transform="translate(-172.55 -124.58)"/><path id="Path-5" class="cls-1" d="M500.92,217.41H420.77a15.37,15.37,0,0,1-15.32-15.32V164.57a15.37,15.37,0,0,1,15.32-15.32h80.15a15.37,15.37,0,0,1,15.32,15.32v37.52A15.37,15.37,0,0,1,500.92,217.41Z" transform="translate(-172.55 -124.58)"/><g id="Group"><path id="Path-6" class="cls-4" d="M427.2,198.06A24.93,24.93,0,0,0,462,203.58h0l-29.3-40.33a24.92,24.92,0,0,0-5.52,34.81Z" transform="translate(-172.55 -124.58)"/><g id="Group-2"><path id="Path-7" class="cls-4" d="M435.34,161.33l13.42,18.48,18.84-13.68A23.29,23.29,0,0,0,435.34,161.33Z" transform="translate(-172.55 -124.58)"/><path id="Path-8" class="cls-4" d="M469.8,169.11c-.09-.13-.2-.24-.29-.36l-18.84,13.68,14,19.24a23.3,23.3,0,0,0,5.16-32.56Z" transform="translate(-172.55 -124.58)"/></g></g><g id="Group-3"><path id="Path-9" class="cls-4" d="M504.28,176.81H483.57a1.94,1.94,0,0,1-1.93-1.93h0a1.92,1.92,0,0,1,1.93-1.92h20.71a1.94,1.94,0,0,1,1.93,1.92h0A2,2,0,0,1,504.28,176.81Z" transform="translate(-172.55 -124.58)"/><path id="Path-10" class="cls-4" d="M504.28,183.35H483.57a1.94,1.94,0,0,1-1.93-1.93h0a1.92,1.92,0,0,1,1.93-1.92h20.71a1.94,1.94,0,0,1,1.93,1.92h0A2,2,0,0,1,504.28,183.35Z" transform="translate(-172.55 -124.58)"/><path id="Path-11" class="cls-4" d="M504.28,189.88H483.57a1.92,1.92,0,0,1-1.93-1.92h0a1.92,1.92,0,0,1,1.93-1.93h20.71a1.94,1.94,0,0,1,1.93,1.93h0A1.94,1.94,0,0,1,504.28,189.88Z" transform="translate(-172.55 -124.58)"/><path id="Path-12" class="cls-4" d="M504.28,196.42H483.57a1.93,1.93,0,0,1-1.93-1.93h0a1.92,1.92,0,0,1,1.93-1.92h20.71a1.94,1.94,0,0,1,1.93,1.92h0A1.94,1.94,0,0,1,504.28,196.42Z" transform="translate(-172.55 -124.58)"/></g></g><g id="Button"><g id="Group-4"><path id="Path-13" class="cls-3" d="M257.19,292.25H182.64a10.11,10.11,0,0,1-10.09-10.08v-2.32a10.12,10.12,0,0,1,10.09-10.09h74.55a10.13,10.13,0,0,1,10.09,10.09v2.32A10.12,10.12,0,0,1,257.19,292.25Z" transform="translate(-172.55 -124.58)"/><g id="Group-5"><path id="Path-14" class="cls-4" d="M256.36,281.7l-.08.09a.51.51,0,0,1-.72.07L249,276.55a.52.52,0,0,1-.07-.73l.07-.09a.52.52,0,0,1,.73-.07l6.52,5.31a.51.51,0,0,1,.08.72Z" transform="translate(-172.55 -124.58)"/><path id="Path-15" class="cls-4" d="M256.36,281.13l-.08-.09a.51.51,0,0,0-.72-.07L249,286.28a.51.51,0,0,0-.07.72l.07.1a.52.52,0,0,0,.73.07l6.52-5.31a.51.51,0,0,0,.08-.72Z" transform="translate(-172.55 -124.58)"/></g></g><g id="Group-6"><path id="Path-16" class="cls-2" d="M268.74,317.28H218.88a6.76,6.76,0,0,1-6.74-6.75V309a6.76,6.76,0,0,1,6.74-6.74h49.86a6.76,6.76,0,0,1,6.74,6.74v1.55A6.76,6.76,0,0,1,268.74,317.28Z" transform="translate(-172.55 -124.58)"/><g id="Group-7"><path id="Path-17" class="cls-4" d="M268.18,310.22l-.05.06a.35.35,0,0,1-.49.05l-4.36-3.55a.35.35,0,0,1,0-.49l0-.06a.35.35,0,0,1,.49-.05l4.36,3.56A.35.35,0,0,1,268.18,310.22Z" transform="translate(-172.55 -124.58)"/><path id="Path-18" class="cls-4" d="M268.18,309.84l-.05-.06a.35.35,0,0,0-.49,0l-4.36,3.56a.34.34,0,0,0,0,.48l0,.06a.34.34,0,0,0,.48.05l4.37-3.55A.37.37,0,0,0,268.18,309.84Z" transform="translate(-172.55 -124.58)"/></g></g></g></g><g id="Nature"><g id="Plant"><path id="Path-19" class="cls-5" d="M259,423a3.32,3.32,0,0,0-4.54,1.21c-2.05-3.79-1-8.4-.51-12.68a8.26,8.26,0,0,0-.4-4.55c-.66-1.39-2.34-2.42-3.77-1.85-2.94,1.15-2,7-5.14,7.36-1.78.2-2.94-1.74-3.94-3.23a13.78,13.78,0,0,0-5.53-4.76c-.79-.37-1.84-.61-2.43,0s-.3,1.54,0,2.29a49.19,49.19,0,0,0,3.65,7.34,1.55,1.55,0,0,1,.33,1.07c-.19.85-1.44.73-2.24.39L225.75,412c-.83.77-.49,2.18.22,3a25.38,25.38,0,0,1,2.31,2.45c.88,1.44.62,3.28.82,5s1.37,3.61,3.05,3.39c-1.38.63-1.43,2.73-.49,3.93a8.9,8.9,0,0,0,3.86,2.3c1.41.58,2.89,1.35,3.49,2.74.52,1.18.28,2.55.54,3.82,1.4,6.92,11.15,9.62,15.19,4.11C257.56,439,265.05,426.46,259,423Z" transform="translate(-172.55 -124.58)"/><path id="Path-20" class="cls-6" d="M222.35,442.81a2.91,2.91,0,0,1-1-2,1.86,1.86,0,0,1,2.27-1.46,3.56,3.56,0,0,1,2.24,1.94,9.76,9.76,0,0,1,.88-3.52c.19-.43.56-.91,1-.81a1,1,0,0,1,.59.55,4.28,4.28,0,0,1,.32,3.27,6.45,6.45,0,0,1,4.56-4.42,1.13,1.13,0,0,1,.81,0c.57.29.4,1.14.14,1.72-1.2,2.77-2.52,6.13-4.93,8.1S223.83,444.44,222.35,442.81Z" transform="translate(-172.55 -124.58)"/><path id="Path-21" class="cls-4" d="M250.86,446.39a.65.65,0,0,1-.62-.48l-7.13-26.7a.64.64,0,0,1,1.23-.35v0l7.13,26.71a.64.64,0,0,1-.45.78h0Z" transform="translate(-172.55 -124.58)"/><path id="Path-22" class="cls-4" d="M246.4,429.69a.73.73,0,0,1-.29-.07l-9.37-4.68a.64.64,0,0,1,.57-1.14l9.37,4.68a.63.63,0,0,1,.29.85.64.64,0,0,1-.57.36Z" transform="translate(-172.55 -124.58)"/><path id="Path-23" class="cls-4" d="M248.89,439a.61.61,0,0,1-.3-.08.63.63,0,0,1-.27-.85h0l3.89-7.52a.63.63,0,0,1,.86-.26.64.64,0,0,1,.27.84l-3.89,7.52A.63.63,0,0,1,248.89,439Z" transform="translate(-172.55 -124.58)"/></g><g id="Plant-2" data-name="Plant"><path id="Path-24" class="cls-6" d="M477.2,421.28c-.08-.27-.15-.55-.21-.83-.74-3.43.2-7.4,3-9.51s7.2-2.47,8.26-5.75c.75-2.33-.75-4.7-1.79-6.91s-1.37-5.4.76-6.61c1.74-1,4,.08,5.88-.7,3.14-1.31,2.67-6.65,5.77-8.06,2-.93,4.45.4,6.6-.15,3.13-.82,3.94-5,3.18-8.11s-2.47-6.16-2.09-9.36c1-8.72,21.62-15.08,22-3.45.1,3.19-2,6-3.26,8.91s-1,7.23,2,8.32c2,.73,4.85-.22,6.1,1.56,2.3,3.26-5.62,5.8-5.15,9.77.32,2.72,4.12,3.23,6,5.25,2.44,2.65.66,7.2-2.28,9.28s-6.68,2.68-9.92,4.27a5.22,5.22,0,0,0-3,2.95c-.86,3.11,3.22,5.15,6.41,5.63s7.35,1.7,7.35,4.94c0,2.59-2.88,4.14-5.41,4.73s-5.44,1-6.86,3.18-.73,4.85-1.47,7.22c-1.67,5.33-19.21,8.62-24.64,7.29-8.54-2.08-6.22-9.27-12.19-15.71A20.81,20.81,0,0,1,477.2,421.28Z" transform="translate(-172.55 -124.58)"/><path id="Path-25" class="cls-7" d="M478.34,438.63l.43-.43" transform="translate(-172.55 -124.58)"/><path id="Path-26" class="cls-8" d="M492.12,438c1.58-3.78,1.12-8.06.64-12.13a9.82,9.82,0,0,0-1.05-3.94,3.32,3.32,0,0,0-3.44-1.7c-1.72.44-2.66,2.65-4.43,2.77-1.36.09-2.47-1.17-2.88-2.47-.8-2.56.19-5.3.21-8s-1.89-5.89-4.51-5.35-3.09,4.28-2.56,7c.24,1.24.41,2.82-.67,3.48s-2.53-.31-3.52-1.21a43.22,43.22,0,0,0-6.16-4.7c-1-.64-2.38-1.21-3.29-.44s-.58,2.15-.12,3.2a19.39,19.39,0,0,0,3.89,5.79c.82.85,1.76,2.14,1,3-.61.73-1.78.42-2.66.06-1.9-.77-6.78-8.5-5.82,0s10,7.65,15.27,11.1c-2.2,1.54-2.25,5-.75,7.22s4.08,3.44,6.62,4.31C485.64,448.65,488.93,445.57,492.12,438Z" transform="translate(-172.55 -124.58)"/><path id="Path-27" class="cls-4" d="M487.17,445.65a.63.63,0,0,1-.54-.3l-13.4-21.49a.64.64,0,0,1,1.08-.68l13.41,21.5a.63.63,0,0,1-.21.87h0A.67.67,0,0,1,487.17,445.65Z" transform="translate(-172.55 -124.58)"/><path id="Path-28" class="cls-4" d="M482.81,438.66a.45.45,0,0,1-.16,0,.62.62,0,0,1-.45-.77h0l2.34-8.86a.64.64,0,0,1,1.23.33l-2.34,8.86A.64.64,0,0,1,482.81,438.66Z" transform="translate(-172.55 -124.58)"/><path id="Path-29" class="cls-4" d="M477.29,429.8h-.11l-7.34-1.17a.64.64,0,0,1,.2-1.26h0l7.34,1.17a.64.64,0,0,1-.09,1.27Z" transform="translate(-172.55 -124.58)"/><path id="Path-30" class="cls-4" d="M493.59,447.88a.64.64,0,0,1-.64-.63.52.52,0,0,1,0-.21l21.24-61.61a.64.64,0,0,1,.82-.39.63.63,0,0,1,.39.81l-21.25,61.6A.62.62,0,0,1,493.59,447.88Z" transform="translate(-172.55 -124.58)"/><path id="Path-31" class="cls-4" d="M502.28,424.16a.64.64,0,0,1-.63-.65.64.64,0,0,1,.57-.63l13.83-1.38a.65.65,0,0,1,.7.57.64.64,0,0,1-.57.7h0l-13.83,1.38Z" transform="translate(-172.55 -124.58)"/><path id="Path-32" class="cls-4" d="M508,406a.63.63,0,0,1-.64-.64.64.64,0,0,1,.52-.62l11.72-2.16a.64.64,0,0,1,.75.5h0a.64.64,0,0,1-.51.74h0L508.12,406Z" transform="translate(-172.55 -124.58)"/><path id="Path-33" class="cls-4" d="M505.16,414.22a.63.63,0,0,1-.47-.2L495,403.63a.63.63,0,0,1,0-.9.64.64,0,0,1,.9,0h0l9.72,10.39a.64.64,0,0,1,0,.9h0A.63.63,0,0,1,505.16,414.22Z" transform="translate(-172.55 -124.58)"/></g></g><g id="Characters"><g id="Woman"><g id="Bag"><path id="Path-34" class="cls-6" d="M323.38,233.36l-28.6,8.24a5,5,0,0,1-6.19-3.42l-5.86-20.33a5,5,0,0,1,3.42-6.19l28.6-8.25a5,5,0,0,1,6.19,3.42l5.86,20.34A5,5,0,0,1,323.38,233.36Z" transform="translate(-172.55 -124.58)"/><path id="Path-35" class="cls-6" d="M284.28,214.36l31.05-37.55,4,8.72-6.06.5-24.58,28.33Z" transform="translate(-172.55 -124.58)"/></g><g id="Leg"><path id="Skin" class="cls-9" d="M354.17,311.64l-4.93,17.09-6.28-1,6.28-17.55S352.75,310.29,354.17,311.64Z" transform="translate(-172.55 -124.58)"/><path id="Shoe" class="cls-6" d="M374.48,332.79a61.91,61.91,0,0,1-13.09,2.56c-8.64.95-20.22.44-22.29-.19-3.15-1-1.22-10.6,1.67-10.72s4.18,3.75,9.12.06c4.22-3.16,8,2.33,15.63,3.53S376.29,329.7,374.48,332.79Z" transform="translate(-172.55 -124.58)"/><path id="Leg-2" data-name="Leg" class="cls-10" d="M361.8,312.5c1.32-14.06,6.16-34,3.15-48.15C361.88,250,351.61,245,341.41,234.78c-10.54-10.61-10.49-.47-10.49-.47l-.94,3c5,4.16-9.49,6.88-4.63,11.16,5.22,4.62,9.32,6.92,14.37,11.71,6.43,6.1,9.89,3.48,9.19,12.45-.2,2.54-4.73,25.75-6.07,35.51-1.54,11.3-9.3,7.85,11.62,11.45C367.47,321.86,361,321.29,361.8,312.5Z" transform="translate(-172.55 -124.58)"/></g><g id="Leg-3" data-name="Leg"><path id="Skin-2" data-name="Skin" class="cls-9" d="M310.86,338.21l-.25,17.47-6.25.52L305.78,338S309.15,337.25,310.86,338.21Z" transform="translate(-172.55 -124.58)"/><path id="Shoe-2" data-name="Shoe" class="cls-6" d="M335.56,362.1a61.28,61.28,0,0,1-13.06,1.8c-8.57.44-18.12.58-19.83-.64s-2.63-11.32.22-11.27,3.88,3.93,9,.57c4.36-2.88,7.7,2.74,15.17,4.36S337.54,359.17,335.56,362.1Z" transform="translate(-172.55 -124.58)"/><path id="Leg-4" data-name="Leg" class="cls-11" d="M324.35,346a4.85,4.85,0,0,0-1.39-1.82c-5.1-5.32-2.45-11.79-.46-17.49,4.73-13.52,4.86-27.89,6.46-41.91A134.78,134.78,0,0,1,340.12,245c2.07-4.61,5.06-11.77-3.13-11.61a33.37,33.37,0,0,1-11.21-1.85c-1.92-.63.2-.91-1.92-.63-7.22,1-12,12.68-11.32,17.12,1.29,8.85.75,17.06-.4,26-1.62,12.73-1.65,25.71-5.51,38-1.89,6-3.9,12-5.88,18-1.16,3.5-5.76,10.82-4.2,14.39,2.15,4.91,15.95,3.21,20.35,3.79C320.2,348.65,324.93,348.21,324.35,346Z" transform="translate(-172.55 -124.58)"/></g><g id="Head"><path id="Neck" class="cls-12" d="M338.81,167.11l-1.9,13c-3.35.92-6.87,2.68-10.4,2.68.16-2.41,2.68-5.17,3.84-7.44a17.12,17.12,0,0,0,2.24-8.71C332.18,158.54,338.81,167.11,338.81,167.11Z" transform="translate(-172.55 -124.58)"/><path id="Face" class="cls-9" d="M344.7,141.93s5.46,3.47,2.56,11.76c-3.1,8.86-7.56,16.28-10.43,15.52-7.93-2.13-10.28-7.67-12.68-12.45-2.93-5.86,5.07-19,5.07-19l6.72-2.75Z" transform="translate(-172.55 -124.58)"/><path id="Hair" class="cls-10" d="M354.83,141.37c.8-1.84-.1-5.31-1.47-6.59a2.82,2.82,0,0,0-1.94-.83,6.32,6.32,0,0,1-1.62.08c-1.58-.37-1.58-1.63-3-2.19-1.08-.42-2.23.44-3.38.6a6.4,6.4,0,0,1-2.58-.4c-2.38-.66-4.52-1.91-7-2.39a11.11,11.11,0,0,0-6.25.46,8.87,8.87,0,0,0-4.58,4.6,6.65,6.65,0,0,0-.58,3.93c-.2-1.08-2.34-.1-2.71.29-1.44,1.54-5.07,6-4.55,8,.41,1.55-.87,3-.5,4.52.43,1.87,5.66,2.95,6.6,4.65a5.58,5.58,0,0,0,5.61,2.73,17.78,17.78,0,0,1-1-5.3c0-1.81-1.79-10.15,7.86-11.18,3.83-.41,8.12,2.88,11.89,3.32a13.81,13.81,0,0,0,5.35-.49c1.35-.4,2.78-2.11,3.61-3.38A3.36,3.36,0,0,0,354.83,141.37Z" transform="translate(-172.55 -124.58)"/><path id="Hair-2" data-name="Hair" class="cls-10" d="M348.73,140.53c2.37-1.26,3.06-4.13,3.3-6.68.27-2.76.22-3.26-2.28-5.21a15.47,15.47,0,0,0-3.34-1.55c-6-2-12.83-3.47-19.15-1.74-5.8,1.6-9.81,6.24-11.8,11.41a23.53,23.53,0,0,0-1.59,8.25c0,3.06,1.26,6.47-.89,9.17a7,7,0,0,0,2.36-.23c-3.3.48-8.28,1.3-8.4,5.24-.05,1.72,1.15,3.22,2.16,4.67s1.91,3.24,1.2,4.83c-.88,2-4,2.81-4.35,5-.47,2.55,2.11,3.72,3.15,5.71,1.31,2.51,0,5.43-.25,8-.27,2.3,2,3.36,3.5,4.74,4.3,4,4.25,8.53-.46,12.94-.1.08-.06.26,0,.37a.57.57,0,0,0,.36.2c6.09,1.48,14-4,15.41-9.5.63-2.47-1-4.78-.28-7.15.76-2.56,3.8-3.51,5.83-5,3.72-2.72,7.71-7.43,7.16-12.14a15.27,15.27,0,0,0-3.42-8.44c-1.85-2-7.38-3.17-7.32-6.23,0-1.35,1.19-2.4,2.07-3.48,2.23-2.73-2-5.1.07-6.53a11.69,11.69,0,0,1,4.61-1.83c1.74-.3,3.53-.57,4.89-1.73s3-3.51,5-3.34c2.45.2,5.27-.37,6.54-2.34" transform="translate(-172.55 -124.58)"/></g><path id="Body" class="cls-13" d="M341.71,205.3c-.88-7.83,3.17-20.3-1.71-26.66a6.62,6.62,0,0,0-1.77-1.73c-9.19-5.39-15.55,3-18.49,10.36-2.54,6.39-2.23,12.27-2.42,18.93-.32,11.24-3.12,22.17-6.69,32.85-1.27,3.81-1.61,8.25,2,8.83,4.87.78,5.92-4.83,10.57-6.28,4.25-1.32,7.67-.51,12.31-.27,2.3.12,9.82-1.3,9.36-5.3-1.09-9.47-2.72-17.65-2.77-24.25Q342.06,208.54,341.71,205.3Z" transform="translate(-172.55 -124.58)"/><path id="Arm" class="cls-9" d="M329.26,184.76s-2.65,11.56-5.44,25.64a48.16,48.16,0,0,0,1.35,24.71c.61,1.56,1.23,3.11,1.9,4.61a12.52,12.52,0,0,1,1.24,8.14,8.06,8.06,0,0,0,2.47,7.12c1.42,1.46,3.19,2.58,4.42,4.2.2.26.53.55.82.4s.24-.46.2-.73c-.4-2.39-.8-4.79-1.21-7.18a3.52,3.52,0,0,1,0-1.41,1.29,1.29,0,0,1,1-1,2.1,2.1,0,0,1,1.58.73c.67.6,1.13,2.78,2.37,2,.52-2.09-1.57-6.05-2.85-7.76-1.27-1.94-3.7-1.55-4.45-3.62-.81-2.23-1.62-4.45-2.4-6.69-5.56-22.18,2.27-31.29,2.27-31.29s-1.72-1.43-.49-12.46S329.26,184.76,329.26,184.76Z" transform="translate(-172.55 -124.58)"/><path id="Body-2" data-name="Body" class="cls-8" d="M335.49,201.7s6.36-20.37-2.57-20-11.84,23.9-11.84,23.9l14.65-.82Z" transform="translate(-172.55 -124.58)"/></g></g></g></svg>